<svg viewBox="0 0 330 200" xmlns="http://www.w3.org/2000/svg"><g><g><g><g><g><line x1="51.5625" y1="177" x2="46.5625" y2="177" style="visibility: inherit;" fill="rgb(0, 0, 0)" stroke="rgb(204, 204, 204)" stroke-width="1px"></line><line x1="51.5625" y1="160.9090909090909" x2="46.5625" y2="160.9090909090909" style="visibility: inherit;" fill="rgb(0, 0, 0)" stroke="rgb(204, 204, 204)" stroke-width="1px"></line><line x1="51.5625" y1="144.8181818181818" x2="46.5625" y2="144.8181818181818" style="visibility: inherit;" fill="rgb(0, 0, 0)" stroke="rgb(204, 204, 204)" stroke-width="1px"></line><line x1="51.5625" y1="128.72727272727272" x2="46.5625" y2="128.72727272727272" style="visibility: inherit;" fill="rgb(0, 0, 0)" stroke="rgb(204, 204, 204)" stroke-width="1px"></line><line x1="51.5625" y1="112.63636363636364" x2="46.5625" y2="112.63636363636364" style="visibility: inherit;" fill="rgb(0, 0, 0)" stroke="rgb(204, 204, 204)" stroke-width="1px"></line><line x1="51.5625" y1="96.54545454545453" x2="46.5625" y2="96.54545454545453" style="visibility: inherit;" fill="rgb(0, 0, 0)" stroke="rgb(204, 204, 204)" stroke-width="1px"></line><line x1="51.5625" y1="80.45454545454547" x2="46.5625" y2="80.45454545454547" style="visibility: inherit;" fill="rgb(0, 0, 0)" stroke="rgb(204, 204, 204)" stroke-width="1px"></line><line x1="51.5625" y1="64.36363636363636" x2="46.5625" y2="64.36363636363636" style="visibility: inherit;" fill="rgb(0, 0, 0)" stroke="rgb(204, 204, 204)" stroke-width="1px"></line><line x1="51.5625" y1="48.272727272727266" x2="46.5625" y2="48.272727272727266" style="visibility: inherit;" fill="rgb(0, 0, 0)" stroke="rgb(204, 204, 204)" stroke-width="1px"></line><line x1="51.5625" y1="32.181818181818215" x2="46.5625" y2="32.181818181818215" style="visibility: inherit;" fill="rgb(0, 0, 0)" stroke="rgb(204, 204, 204)" stroke-width="1px"></line><line x1="51.5625" y1="16.090909090909097" x2="46.5625" y2="16.090909090909097" style="visibility: inherit;" fill="rgb(0, 0, 0)" stroke="rgb(204, 204, 204)" stroke-width="1px"></line><line x1="51.5625" y1="0" x2="46.5625" y2="0" style="visibility: inherit;" fill="rgb(0, 0, 0)" stroke="rgb(204, 204, 204)" stroke-width="1px"></line></g><g transform="translate(41.5625, 0)"><text x="0" y="177" dx="0em" dy="0.3em" style="text-anchor: end; visibility: hidden; font-family: Roboto, sans-serif; font-size: 12px; font-weight: 200;" fill="rgb(33, 33, 33)" stroke="none" stroke-width="1px">0.06</text><text x="0" y="160.9090909090909" dx="0em" dy="0.3em" style="text-anchor: end; visibility: inherit; font-family: Roboto, sans-serif; font-size: 12px; font-weight: 200;" fill="rgb(33, 33, 33)" stroke="none" stroke-width="1px">0.07</text><text x="0" y="144.8181818181818" dx="0em" dy="0.3em" style="text-anchor: end; visibility: hidden; font-family: Roboto, sans-serif; font-size: 12px; font-weight: 200;" fill="rgb(33, 33, 33)" stroke="none" stroke-width="1px">0.08</text><text x="0" y="128.72727272727272" dx="0em" dy="0.3em" style="text-anchor: end; visibility: inherit; font-family: Roboto, sans-serif; font-size: 12px; font-weight: 200;" fill="rgb(33, 33, 33)" stroke="none" stroke-width="1px">0.09</text><text x="0" y="112.63636363636364" dx="0em" dy="0.3em" style="text-anchor: end; visibility: hidden; font-family: Roboto, sans-serif; font-size: 12px; font-weight: 200;" fill="rgb(33, 33, 33)" stroke="none" stroke-width="1px">0.1</text><text x="0" y="96.54545454545453" dx="0em" dy="0.3em" style="text-anchor: end; visibility: inherit; font-family: Roboto, sans-serif; font-size: 12px; font-weight: 200;" fill="rgb(33, 33, 33)" stroke="none" stroke-width="1px">0.11</text><text x="0" y="80.45454545454547" dx="0em" dy="0.3em" style="text-anchor: end; visibility: hidden; font-family: Roboto, sans-serif; font-size: 12px; font-weight: 200;" fill="rgb(33, 33, 33)" stroke="none" stroke-width="1px">0.12</text><text x="0" y="64.36363636363636" dx="0em" dy="0.3em" style="text-anchor: end; visibility: inherit; font-family: Roboto, sans-serif; font-size: 12px; font-weight: 200;" fill="rgb(33, 33, 33)" stroke="none" stroke-width="1px">0.13</text><text x="0" y="48.272727272727266" dx="0em" dy="0.3em" style="text-anchor: end; visibility: hidden; font-family: Roboto, sans-serif; font-size: 12px; font-weight: 200;" fill="rgb(33, 33, 33)" stroke="none" stroke-width="1px">0.14</text><text x="0" y="32.181818181818215" dx="0em" dy="0.3em" style="text-anchor: end; visibility: inherit; font-family: Roboto, sans-serif; font-size: 12px; font-weight: 200;" fill="rgb(33, 33, 33)" stroke="none" stroke-width="1px">0.15</text><text x="0" y="16.090909090909097" dx="0em" dy="0.3em" style="text-anchor: end; visibility: hidden; font-family: Roboto, sans-serif; font-size: 12px; font-weight: 200;" fill="rgb(33, 33, 33)" stroke="none" stroke-width="1px">0.16</text><text x="0" y="0" dx="0em" dy="0.3em" style="text-anchor: end; visibility: hidden; font-family: Roboto, sans-serif; font-size: 12px; font-weight: 200;" fill="rgb(33, 33, 33)" stroke="none" stroke-width="1px">0.17</text></g><line x1="51.5625" y1="0" x2="51.5625" y2="177" fill="rgb(0, 0, 0)" stroke="rgb(204, 204, 204)" stroke-width="1px"></line></g></g><g transform="translate(51, 0)" clip-path="url(#clip_0)"><clipPath id="clip_0"><rect width="278" height="177"></rect></clipPath><g><g><g><line x1="0" y1="0" x2="0" y2="177" fill="rgb(0, 0, 0)" stroke="rgb(66, 66, 66)" stroke-width="1px" opacity="0.25"></line><line x1="25.3125" y1="0" x2="25.3125" y2="177" fill="rgb(0, 0, 0)" stroke="rgb(66, 66, 66)" stroke-width="1px" opacity="0.25"></line><line x1="50.625" y1="0" x2="50.625" y2="177" fill="rgb(0, 0, 0)" stroke="rgb(66, 66, 66)" stroke-width="1px" opacity="0.25"></line><line x1="75.9375" y1="0" x2="75.9375" y2="177" fill="rgb(0, 0, 0)" stroke="rgb(66, 66, 66)" stroke-width="1px" opacity="0.25"></line><line x1="101.25" y1="0" x2="101.25" y2="177" fill="rgb(0, 0, 0)" stroke="rgb(66, 66, 66)" stroke-width="1px" opacity="0.25"></line><line x1="126.5625" y1="0" x2="126.5625" y2="177" fill="rgb(0, 0, 0)" stroke="rgb(66, 66, 66)" stroke-width="1px" opacity="0.25"></line><line x1="151.875" y1="0" x2="151.875" y2="177" fill="rgb(0, 0, 0)" stroke="rgb(66, 66, 66)" stroke-width="1px" opacity="0.25"></line><line x1="177.1875" y1="0" x2="177.1875" y2="177" fill="rgb(0, 0, 0)" stroke="rgb(66, 66, 66)" stroke-width="1px" opacity="0.25"></line><line x1="202.5" y1="0" x2="202.5" y2="177" fill="rgb(0, 0, 0)" stroke="rgb(66, 66, 66)" stroke-width="1px" opacity="0.25"></line><line x1="227.8125" y1="0" x2="227.8125" y2="177" fill="rgb(0, 0, 0)" stroke="rgb(66, 66, 66)" stroke-width="1px" opacity="0.25"></line><line x1="253.125" y1="0" x2="253.125" y2="177" fill="rgb(0, 0, 0)" stroke="rgb(66, 66, 66)" stroke-width="1px" opacity="0.25"></line><line x1="278.4375" y1="0" x2="278.4375" y2="177" fill="rgb(0, 0, 0)" stroke="rgb(66, 66, 66)" stroke-width="1px" opacity="0.25"></line></g><g><line x1="0" y1="177" x2="278.4375" y2="177" fill="rgb(0, 0, 0)" stroke="rgb(66, 66, 66)" stroke-width="1px" opacity="0.25"></line><line x1="0" y1="160.9090909090909" x2="278.4375" y2="160.9090909090909" fill="rgb(0, 0, 0)" stroke="rgb(66, 66, 66)" stroke-width="1px" opacity="0.25"></line><line x1="0" y1="144.8181818181818" x2="278.4375" y2="144.8181818181818" fill="rgb(0, 0, 0)" stroke="rgb(66, 66, 66)" stroke-width="1px" opacity="0.25"></line><line x1="0" y1="128.72727272727272" x2="278.4375" y2="128.72727272727272" fill="rgb(0, 0, 0)" stroke="rgb(66, 66, 66)" stroke-width="1px" opacity="0.25"></line><line x1="0" y1="112.63636363636364" x2="278.4375" y2="112.63636363636364" fill="rgb(0, 0, 0)" stroke="rgb(66, 66, 66)" stroke-width="1px" opacity="0.25"></line><line x1="0" y1="96.54545454545453" x2="278.4375" y2="96.54545454545453" fill="rgb(0, 0, 0)" stroke="rgb(66, 66, 66)" stroke-width="1px" opacity="0.25"></line><line x1="0" y1="80.45454545454547" x2="278.4375" y2="80.45454545454547" fill="rgb(0, 0, 0)" stroke="rgb(66, 66, 66)" stroke-width="1px" opacity="0.25"></line><line x1="0" y1="64.36363636363636" x2="278.4375" y2="64.36363636363636" fill="rgb(0, 0, 0)" stroke="rgb(66, 66, 66)" stroke-width="1px" opacity="0.25"></line><line x1="0" y1="48.272727272727266" x2="278.4375" y2="48.272727272727266" fill="rgb(0, 0, 0)" stroke="rgb(66, 66, 66)" stroke-width="1px" opacity="0.25"></line><line x1="0" y1="32.181818181818215" x2="278.4375" y2="32.181818181818215" fill="rgb(0, 0, 0)" stroke="rgb(66, 66, 66)" stroke-width="1px" opacity="0.25"></line><line x1="0" y1="16.090909090909097" x2="278.4375" y2="16.090909090909097" fill="rgb(0, 0, 0)" stroke="rgb(66, 66, 66)" stroke-width="1px" opacity="0.25"></line><line x1="0" y1="0" x2="278.4375" y2="0" fill="rgb(0, 0, 0)" stroke="rgb(66, 66, 66)" stroke-width="1px" opacity="0.25"></line></g></g></g><g><g><line x1="0" y1="273.54545454545456" x2="278.4375" y2="273.54545454545456" fill="rgb(0, 0, 0)" stroke="rgb(153, 153, 153)" stroke-width="1.5px"></line></g></g><g><g><line x1="25.3125" y1="0" x2="25.3125" y2="177" fill="rgb(0, 0, 0)" stroke="rgb(153, 153, 153)" stroke-width="1.5px"></line></g></g><g><g><g><g><g><path stroke="rgb(255, 112, 67)" stroke-width="2px" d="M28.071562500000002,-32.846343223084745L28.3246875,29.17979287354915L28.5778125,31.769736804084626L28.8309375,-32.83542186521723L29.084062499999998,18.13818328664779L29.337187500000002,-13.741540285882271L29.5903125,2.1605005873090266L29.8434375,-7.436478006648151L30.096562499999997,3.0594116217710514L30.349687499999998,1.1338359029267195L30.602812500000002,-32.45912062471824L30.8559375,-4.354552943645592L31.1090625,6.506724846251059L31.362187499999997,-39.19955462135329L31.6153125,-38.42310538033162L31.8684375,10.413123794352412L32.1215625,36.90454775904908L32.3746875,44.23042137050223L32.6278125,70.434783794345L32.8809375,71.85232917936973L33.1340625,43.611108795027995L33.3871875,-5.498550235312804L33.6403125,-18.011435062072316L33.8934375,30.095009104899948L34.1465625,48.99508838315074L34.3996875,42.113060612056L34.6528125,48.274757640364015L34.9059375,86.68228866494613L35.159062500000005,63.513720350344656L35.412187499999995,40.84553017868025L35.6653125,49.891753971889734L35.9184375,79.95277327897549L36.1715625,55.81916249435947L36.4246875,94.11523235456718L36.677812499999995,93.05085084361278L36.9309375,114.40917152448414L37.1840625,95.96235755131957L37.4371875,90.92546745284079L37.6903125,74.0078033431876L37.9434375,56.04241985214187L38.1965625,52.38416696430559L38.4496875,85.07420611892505L38.7028125,66.41221224914784L38.9559375,70.03167800045328L39.2090625,67.18751247758009L39.4621875,78.80039691512467L39.7153125,63.623784591623405L39.96843749999999,35.477808630926L40.2215625,-139.94131486844879L40.7278125,-16.09275343554866L40.9809375,51.59145482458208L41.23406249999999,102.36030835718124L41.4871875,107.89517911071798L41.7403125,112.04445093639735L41.9934375,77.47521985847753L42.2465625,83.52619130940276L42.4996875,65.00264844614884L42.7528125,27.294986047801558L43.0059375,45.362840584355524L43.2590625,83.75765991025716L43.5121875,53.69040131891265L43.7653125,62.50821576311879L44.0184375,79.2178647408386L44.2715625,82.83392104877397L44.5246875,101.17100337587001L44.777812499999996,54.28140663551429L45.0309375,28.62889870400784L45.2840625,75.581100054411L45.5371875,81.17892216043619L45.790312500000006,79.16840225478L46.043437499999996,115.88470111447023L46.2965625,71.10424022660035L46.5496875,64.41652556150564L46.8028125,78.29585192137604L47.055937500000006,79.39501375982441L47.309062499999996,67.54557981129237L47.5621875,79.08254645650669L47.8153125,90.24545170081525L48.0684375,86.78179717353343L48.321562500000006,76.65491585038194L48.574687499999996,70.6702461573877L48.8278125,127.52502883384108L49.0809375,117.68932599913221L49.3340625,73.82370722619109L49.5871875,93.36461077581836L49.840312499999996,89.85463322886605L50.0934375,-61.18716655288143L50.346562500000005,7.089290367877506L50.5996875,23.319601827343845L50.8528125,-9.549971834730753L51.105937499999996,32.854947349427626L51.3590625,-12.621095415083731L51.612187500000005,24.31536852027019L51.8653125,44.68569966974881L52.1184375,46.48507113730542L52.371562499999996,61.485793485550445L52.6246875,58.12388360486203L52.877812500000005,34.9569548671048L53.1309375,60.28066733832039L53.3840625,54.07384884839908L53.637187499999996,76.53332057505426L53.8903125,128.92805441293137L54.143437500000005,135.70569500099703L54.396562499999995,99.934762807587L54.6496875,100.28608142088171L54.9028125,102.44833895415258L55.1559375,118.1703550887932L55.409062500000005,91.27544594678622L55.662187499999995,117.31177272450205L55.9153125,120.14091887179507L56.1684375,130.8483940011471L56.4215625,134.82013320764793L56.674687500000005,104.80237078138364L56.927812499999995,115.85844373819498L57.1809375,96.78490614527459L57.4340625,40.70358243203921L57.6871875,61.83631518146361L57.940312500000005,82.09221344713225L58.193437499999995,95.8819073832915L58.4465625,128.3174611436548L58.6996875,137.90493178356476L58.9528125,119.50087505247195L59.2059375,136.55725485104105L59.459062499999995,124.79486205480076L59.7121875,97.38417023816832L59.9653125,109.21317635579024L60.2184375,94.51559622755609L60.4715625,84.88626935936134L60.7246875,110.44716868803087L60.9778125,96.92552303729111L61.2309375,113.53760586328625L61.4840625,118.32226269007842L61.7371875,114.47148423529337L61.9903125,116.49007487757824L62.2434375,128.57931871257156L62.4965625,109.23700732830504L62.7496875,118.24818600702108L63.0028125,-3.6359767369974385L63.2559375,3.6490743529902976L63.5090625,42.031803426380435L63.7621875,47.691635079253295L64.0153125,31.074180463105655L64.2684375,65.5222740287484L64.5215625,100.56434603855779L64.7746875,96.64003373903765L65.0278125,104.80260996111419L65.2809375,105.23461905662042L65.5340625,112.53429546084298L65.7871875,116.69197538299409L66.0403125,102.27507050624409L66.29343750000001,110.49307022837083L66.5465625,129.63189176744768L66.7996875,116.84217333159233L67.0528125,127.41577562905182L67.3059375,139.59688061225694L67.55906250000001,120.43030144259662L67.8121875,100.25493647420336L68.0653125,108.1101675355452L68.3184375,117.55224808976976L68.5715625,79.15151182639879L68.8246875,99.16243026370954L69.0778125,121.14701961542622L69.3309375,125.69935756473112L69.5840625,97.28634692811535L69.8371875,86.32379330798669L70.09031250000001,86.48337099208156L70.34343750000001,94.28928477210938L70.59656249999999,84.666485128118L70.84968749999999,103.67862450374513L71.1028125,114.36114079097554L71.3559375,110.88320819125181L71.6090625,134.2432362705153L71.8621875,111.75602310986139L72.1153125,116.25533849055061L72.3684375,118.8805596539104L72.62156250000001,109.02597101816244L72.87468750000001,95.24372615119316L73.12781249999999,115.75800459531519L73.3809375,126.56864115672941L73.6340625,127.16153137025724L73.8871875,125.08385494054033L74.1403125,119.75310533572727L74.3934375,109.46663279892337L74.6465625,123.69971970600143L74.8996875,117.59583423067485L75.15281250000001,125.63660412529536L75.4059375,128.55832161713388L75.65906249999999,113.66096192072533L75.9121875,135.37705484529934L76.1653125,115.3911836334286L76.4184375,-11.991474634569329L76.67156250000001,38.07033886108746L76.9246875,68.51467699437435L77.1778125,57.661032076813996L77.4309375,99.84669225419222L77.68406250000001,86.76297083933314L77.9371875,100.4011765099822L78.19031249999999,115.90892272835345L78.4434375,111.82064346297167L78.6965625,106.36972407105804L78.9496875,112.65994775925748L79.20281250000001,108.04535656136893L79.4559375,122.30853837977153L79.7090625,148.77685557753028L79.96218750000001,140.69918683249952L80.2153125,139.9810969709652L80.4684375,143.4540006045443L80.72156249999999,115.60303327909035L80.9746875,103.76516283001692L81.2278125,70.94649308427249L81.4809375,108.22073033969234L81.73406250000001,102.53675368846919L81.9871875,128.80448148339235L82.2403125,103.66358392811996L82.49343750000001,113.08987343481942L82.7465625,141.05890557001365L82.9996875,145.18787513490895L83.25281249999999,137.67031936725715L83.5059375,101.7675428898162L83.7590625,111.73486081048189L84.0121875,150.90199579766L84.26531250000001,117.88348726016642L84.5184375,125.10163473183782L84.7715625,125.8387444962391L85.0246875,129.34274186677615L85.2778125,16.269014199135334L85.5309375,42.71976280619525L85.7840625,53.283838569309516L86.0371875,65.06270025486558L86.2903125,68.34512969226347L86.5434375,106.3611548597584L86.79656250000001,121.16646817383261L87.0496875,139.79396350688717L87.3028125,140.41128883501446L87.5559375,59.745659721518706L87.8090625,96.6773356621307L88.0621875,79.2366221789515L88.3153125,109.50661597080642L88.5684375,117.61875707870381L88.8215625,133.93548202765112L89.07468750000001,146.63716964871958L89.32781250000001,146.75813312880774L89.5809375,135.92964190086363L89.83406249999999,121.80242588966924L90.0871875,124.02437499184403L90.3403125,133.747996231214L90.5934375,143.861257948835L90.8465625,150.0509622347329L91.0996875,134.91270090651358L91.3528125,127.27120322348327L91.60593750000001,75.652445339061L91.85906250000001,79.81126810051468L92.1121875,81.26122720150087L92.36531249999999,111.6324597132137L92.6184375,107.28505734124636L92.8715625,141.75315331042214L93.1246875,133.41208930060236L93.3778125,114.40362007167919L93.6309375,126.1889066231342L93.8840625,139.93323609424183L94.13718750000001,148.91741459646988L94.39031250000001,150.75106805664348L94.64343749999999,105.44038925556839L94.89656249999999,109.78045963692313L95.1496875,121.27032513722726L95.4028125,150.8046111000421L95.6559375,153.4979805266926L95.9090625,150.0196458625618L96.1621875,124.15907175219091L96.4153125,144.52130007507384L96.66843750000001,149.18673941296976L96.92156250000001,126.32236446728982L97.17468749999999,95.42955030078099L97.4278125,108.84059479877L97.6809375,108.86993359299743L97.9340625,127.10140197628989L98.1871875,137.14617822208015L98.4403125,37.7669864600453L98.6934375,83.79997626413588L98.9465625,85.44931777291218L99.19968750000001,72.18407805599946L99.4528125,99.33389249184994L99.70593749999999,112.11852671131871L99.9590625,121.83090916096036L100.2121875,127.98019103299896L100.4653125,110.41785313270553L100.71843750000001,131.185933863793L100.9715625,119.89753158701637L101.2246875,142.9827983845066L101.4778125,126.98084858307348L101.73093750000001,149.2253041244313L101.9840625,139.14866487191165L102.23718749999999,51.002754415201316L102.4903125,109.76402065192563L102.7434375,118.47817154764257L102.9965625,117.68135263076174L103.24968750000001,107.6728892028647L103.5028125,115.39053183416613L103.7559375,118.7008492804771L104.00906250000001,84.67680268303515L104.2621875,114.98055108946863L104.5153125,121.78124444603127L104.76843749999999,144.6624328884814L105.0215625,134.74898755402276L105.2746875,131.27835327623106L105.5278125,132.47148603342663L105.78093750000001,117.30877675119835L106.0340625,140.27094205322146L106.2871875,135.37186315770856L106.54031250000001,125.91137041735381L106.7934375,144.93701166833802L107.0465625,123.95926321212757L107.29968749999999,103.61171095333717L107.5528125,108.09845533825292L107.8059375,97.02433437186518L108.0590625,119.19082130456971L108.31218750000001,120.88127729898967L108.5653125,144.14769592592341L108.8184375,155.93121181065464L109.0715625,144.95842413874155L109.3246875,120.71203876651877L109.5778125,139.71310526473584L109.8309375,117.15151675710672L110.0840625,68.49438399936153L110.3371875,95.78739726300637L110.5903125,111.3941469719798L110.84343750000001,140.98746140349292L111.0965625,126.44517114543491L111.3496875,120.02447809664731L111.6028125,107.09463141223064L111.8559375,112.24676629438345L112.1090625,93.92620186473985L112.3621875,125.15085092518908L112.6153125,131.54639202934828L112.8684375,136.19090847557544L113.12156250000001,126.68400365235769L113.37468750000001,132.21089640278493L113.6278125,124.39716152993529L113.88093749999999,118.09461376619586L114.1340625,129.96555829756625L114.3871875,121.04292245769763L114.6403125,114.14487526021595L114.8934375,119.60990471906237L115.1465625,118.96314407041642L115.3996875,116.31740212828501L115.65281250000001,145.64106142536966L115.90593750000001,145.67649072526683L116.1590625,124.32808385291247L116.41218749999999,126.28017032253963L116.6653125,120.84952526807265L116.9184375,112.05460171521484L117.1715625,119.34824830988784L117.4246875,123.69025419500585L117.6778125,122.84032548005922L117.9309375,121.47635355098193L118.18406250000001,110.84999846086427L118.43718750000001,139.8163375254765L118.69031249999999,167.43718171422722L118.9434375,163.13516508631025L119.1965625,138.8841521187334L119.4496875,135.80421893965547L119.7028125,118.99308592454129L119.9559375,134.10287050232608L120.2090625,155.67790248289896L120.4621875,139.64596235602937L120.71531250000001,148.65240197742432L120.96843750000001,130.65004420876986L121.22156249999999,135.32959774115156L121.4746875,128.50801775713575L121.7278125,126.68727598648609L121.9809375,124.44330560005511L122.23406250000001,121.02470720421445L122.4871875,127.17828119165402L122.7403125,121.89463939668576L122.9934375,122.50548634010026L123.24656250000001,131.7812771904751L123.4996875,138.47673579774732L123.75281249999999,107.24329876246601L124.0059375,117.93102707470982L124.2590625,118.41533808386372L124.5121875,142.6566040999437L124.76531250000001,130.93271016507902L125.0184375,147.79463428244003L125.2715625,149.42596477477935L125.52468750000001,156.38886989263028L125.7778125,163.08333033224704L126.0309375,136.69823802000195L126.28406249999999,130.3761477564384L126.5371875,124.11104259621392L126.7903125,127.63174413065707L127.0434375,144.78256940767253L127.29656250000001,111.47036022228322L127.5496875,76.92544281759348L127.8028125,89.03511014800901L128.0559375,121.16679478528172L128.30906249999998,125.07912288647502L128.5621875,126.62521679399104L128.8153125,139.9091933245955L129.0684375,151.30240923941395L129.3215625,144.65427878259683L129.5746875,139.81510708892873L129.8278125,143.26780058460335L130.0809375,138.59494099220683L130.33406250000002,138.95803496903264L130.5871875,134.17427932041716L130.84031249999998,133.09986987926533L131.0934375,116.77196414221291L131.3465625,104.79140448377272L131.5996875,112.17431806535242L131.8528125,147.80374255457676L132.1059375,155.03719358523907L132.3590625,136.0232940444526L132.6121875,121.5495207094114L132.86531250000002,151.91088859391525L133.1184375,150.96083194650058L133.37156249999998,160.38853601596858L133.6246875,136.37713432951577L133.8778125,145.02364539183372L134.1309375,122.76206328102087L134.3840625,71.52439639021563L134.6371875,97.96374099446736L134.8903125,110.53508867075631L135.1434375,130.47403900068267L135.3965625,114.42644827292936L135.6496875,141.16740710951652L135.90281249999998,143.32356883048763L136.1559375,151.4168702139406L136.4090625,152.56931373159148L136.6621875,152.05393403848768L136.9153125,135.9771610644126L137.1684375,135.80958243073823L137.4215625,114.42219806285328L137.6746875,115.72842754791425L137.9278125,98.95435805351772L138.1809375,83.55156679778945L138.4340625,128.82960583628642L138.6871875,104.06887508548155L138.9403125,131.0318419739796L139.1934375,122.25350640609658L139.4465625,134.41283979326093L139.69968749999998,132.18027366150815L139.9528125,149.17874407683902L140.2059375,164.37268634658838L140.45906250000002,147.58619620379517L140.7121875,161.30782456275756L140.9653125,144.07575280983136L141.2184375,162.19222125286825L141.47156249999998,149.07093000500024L141.72468750000002,159.91796106044532L141.9778125,181.59973942441556L142.4840625,180.15228434841123L142.7371875,163.47068946190484L142.9903125,157.76318755090554L143.2434375,146.20665262273414L143.4965625,114.83055549721615L143.74968750000002,114.0451856919135L144.0028125,122.71774471211465L144.2559375,131.37081126759722L144.5090625,144.77473087760154L144.76218749999998,141.14070179255214L145.01531250000002,135.64055683401793L145.2684375,149.9223119129177L145.52156250000002,132.33367846664405L145.7746875,130.96908812350728L146.0278125,134.3283728615228L146.2809375,143.4128997109891L146.53406249999998,134.20844581348337L146.78718750000002,150.31057582597788L147.0403125,145.8871331135302L147.2934375,126.91784190653975L147.5465625,139.4255071004474L147.7996875,125.66674762380494L148.0528125,112.74483351465575L148.30593750000003,133.1541826563107L148.5590625,145.70438087098867L148.8121875,152.27918570542542L149.0653125,145.19093219494079L149.3184375,135.03315188700924L149.5715625,140.49935140196015L149.82468749999998,139.89487905600876L150.07781250000002,136.1900253665942L150.3309375,116.94043244501393L150.58406250000002,120.90860832679535L150.8371875,141.99830927330305L151.09031249999998,110.1515035156004L151.3434375,119.15399237740863L151.59656249999998,119.60165566908071L151.84968750000002,115.0963302686942L152.1028125,123.07741098071475L152.3559375,117.39798218180847L152.6090625,127.82165327281909L152.8621875,106.60543977169705L153.1153125,53.46751565523241L153.36843750000003,69.20698560295337L153.6215625,89.99508718100255L153.8746875,117.87263007051172L154.1278125,107.16399590424551L154.3809375,121.47041451864374L154.6340625,144.35904068690118L154.88718749999998,139.81729542578208L155.14031250000002,104.00709115646883L155.3934375,126.23805436817553L155.64656250000002,109.61850174048013L155.8996875,96.491335273636L156.15281249999998,116.46187633868666L156.4059375,145.57338953698914L156.65906249999998,140.26032522783368L156.91218750000002,110.61001960045782L157.1653125,128.3272400529133L157.4184375,139.98821357673089L157.6715625,102.89163240174948L157.9246875,99.21338520710331L158.1778125,88.26796865512638L158.4309375,116.1947641549039L158.6840625,144.07204177787526L158.9371875,158.66705451819942L159.1903125,132.2778910910813L159.4434375,144.3557617516572L159.6965625,139.91263763234727L159.94968749999998,155.19315643385477L160.20281250000002,144.1407582174809L160.4559375,124.88069343957999L160.7090625,131.10347513086725L160.9621875,130.6260740415608L161.21531249999998,131.6428680301791L161.4684375,126.64925221688064L161.7215625,148.01759155281655L161.97468750000002,81.8664428995799L162.2278125,103.4604677778713L162.4809375,125.46763159494267L162.7340625,145.36476801214832L162.98718749999998,126.13391104078315L163.2403125,127.5984142184779L163.4934375,128.43915522730228L163.7465625,141.06628498326359L163.9996875,130.03771391012276L164.2528125,154.36980926311992L164.5059375,125.42354324323853L164.7590625,146.09423367732876L165.0121875,126.32017382171762L165.26531250000002,135.2486806057026L165.5184375,126.9817738314294L165.7715625,141.86777511498093L166.0246875,131.72113787470533L166.27781249999998,123.50101524088653L166.53093750000002,155.8431672857201L166.7840625,134.26171846533882L167.03718750000002,133.5160214016631L167.2903125,69.56136388674513L167.5434375,100.00630615518659L167.7965625,100.79253703790788L168.04968749999998,127.07895206907483L168.30281250000002,127.7341347491145L168.5559375,123.25838996447975L168.8090625,135.41872322789993L169.0621875,129.66258926746727L169.3153125,117.63502100117223L169.5684375,129.62487204783582L169.82156250000003,113.38885235734831L170.0746875,105.43255365080647L170.3278125,124.92236749370377L170.5809375,112.24695151092479L170.8340625,-10.168050673083501L171.0871875,51.97695392634457L171.34031249999998,67.12738235263708L171.59343750000002,89.4871311459517L171.8465625,107.19052859549808L172.09968750000002,130.2539396115086L172.3528125,117.71271089915449L172.60593749999998,121.66988884223818L172.8590625,142.1186277860655L173.11218749999998,145.8806977658748L173.36531250000002,140.9579207869122L173.6184375,122.6187353334061L173.8715625,118.61589265202149L174.1246875,137.2432008719885L174.3778125,136.38515638384428L174.6309375,122.74568016626907L174.88406250000003,110.46471111573045L175.1371875,140.66734802428698L175.3903125,109.23374987989229L175.6434375,134.96243468568824L175.8965625,123.21925911258954L176.1496875,144.68730138565425L176.40281249999998,114.15618597977736L176.65593750000002,107.86417750371973L176.9090625,123.16738306521736L177.16218750000002,138.38037041394983L177.4153125,113.59266142371558L177.66843749999998,114.6735109413515L177.9215625,113.8926077451129L178.17468749999998,121.95809381563019L178.42781250000002,123.81146065047874L178.6809375,143.46942219092978L178.9340625,132.32283073040566L179.1871875,143.06117221826855L179.4403125,147.63822347048196L179.6934375,128.65716320132995L179.9465625,133.37779700561742L180.1996875,142.50140484563232L180.4528125,128.4855737666157L180.7059375,134.5225848706123L180.9590625,151.99593476310167L181.2121875,119.96485171881739L181.46531249999998,145.32432292582862L181.71843750000002,101.14742845703526L181.9715625,107.77643681141626L182.2246875,47.748718230454394L182.4778125,63.15508165217591L182.73093749999998,92.21705872190469L182.9840625,116.25048325175437L183.2371875,124.12141032590559L183.49031250000002,109.3541050603796L183.7434375,97.8628916564795L183.9965625,105.02683537036366L184.2496875,135.22886274139017L184.5028125,158.55570944476085L184.7559375,135.12707179871882L185.0090625,121.85304612623806L185.2621875,142.05400560865547L185.5153125,104.8008997528484L185.7684375,112.08736685067976L186.0215625,134.33090786210855L186.2746875,148.36811646374449L186.5278125,136.92300441377608L186.78093750000002,130.96761255028343L187.0340625,148.64026135216378L187.2871875,124.24620469164438L187.5403125,152.8873041831729L187.79343749999998,132.74615823570193L188.0465625,151.900450635377L188.2996875,156.45746071190496L188.55281250000002,141.28774211924696L188.8059375,136.1253851345104L189.0590625,138.82098809264L189.3121875,138.4059168778771L189.56531249999998,141.69523647867578L189.81843750000002,115.71485661478059L190.0715625,113.41192628531206L190.3246875,113.60417384314214L190.5778125,115.04698370721364L190.8309375,115.21362515963786L191.0840625,117.50068716323074L191.3371875,134.99888254798145L191.5903125,154.90828524154077L191.8434375,144.88051341194355L192.0965625,143.65062553470943L192.3496875,116.08807227971431L192.6028125,93.37215964229814L192.85593749999998,116.15071923220756L193.10906250000002,52.45252864660494L193.3621875,89.25102361988937L193.61531250000002,136.59872796019155L193.8684375,110.998315388876L194.1215625,122.06514435920369L194.3746875,139.81263112645027L194.62781249999998,153.19944856590976L194.88093750000002,151.37319553673075L195.1340625,143.15652405813492L195.3871875,134.4113070788962L195.6403125,138.10077454205427L195.8934375,125.27367211315675L196.1465625,137.29198763710264L196.39968750000003,112.17924370839489L196.6528125,127.52834695860321L196.9059375,131.1932927354522L197.1590625,133.94945482464175L197.4121875,146.02191274630314L197.6653125,134.7983218615381L197.91843749999998,129.1566125308189L198.17156250000002,135.0757281720738L198.4246875,154.3697295716736L198.67781250000002,140.56273881437923L198.9309375,122.63024221673227L199.18406249999998,130.3665826835203L199.4371875,131.64260381404728L199.69031249999998,150.78973104161884L199.94343750000002,143.62623962577447L200.1965625,127.90529054781463L200.4496875,111.64355750635936L200.7028125,112.37809268415647L200.9559375,125.71122855575922L201.2090625,83.13581937711483L201.4621875,124.10435845189284L201.7153125,128.39236088398528L201.9684375,134.8912859406459L202.2215625,149.16472709455417L202.4746875,178.16111554615148L202.7278125,153.4897954816368L202.98093749999998,154.84819869942132L203.23406250000002,167.51787849134385L203.4871875,178.3862225806323L203.74031250000002,158.22553253256018L203.9934375,158.51206310928416L204.24656249999998,152.5653330779867L204.4996875,107.86124342606699L204.7528125,105.7677921323281L205.00593750000002,134.47205782452124L205.2590625,117.54028252130632L205.5121875,100.1402959720789L205.7653125,105.00029140202288L206.0184375,140.999853678383L206.2715625,151.3501024520513L206.5246875,154.8814476437855L206.7778125,111.40045040077715L207.0309375,113.10897362313176L207.2840625,109.75951129138285L207.5371875,144.76084605636268L207.7903125,118.84285960934528L208.0434375,127.39812020483974L208.29656250000002,122.8930640763895L208.5496875,141.52140786222662L208.8028125,147.16730607948114L209.0559375,153.6003294876573L209.30906249999998,76.13781080357015L209.5621875,109.27748020065351L209.8153125,107.08162007944028L210.06843750000002,139.64325578449998L210.3215625,136.776286949801L210.5746875,146.15093091677335L210.8278125,155.6921348740067L211.08093749999998,154.90461631830968L211.33406250000002,132.74818434627534L211.5871875,118.74847113730067L211.8403125,128.57608907442588L212.0934375,135.2086485620164L212.3465625,129.24325385285536L212.5996875,87.56871195301376L212.8528125,81.8186595571662L213.1059375,104.15393719596688L213.35906250000002,95.4924179644765L213.6121875,114.59307056364794L213.8653125,118.76048119212885L214.1184375,119.95201509692596L214.37156249999998,116.57272121715631L214.62468750000002,130.86869539536616L214.8778125,131.02862824900225L215.13093750000002,140.9898944686413L215.3840625,140.56808496332255L215.6371875,140.9760252827823L215.8903125,148.68370248913016L216.14343749999998,151.94426767957845L216.39656250000002,139.7754698982342L216.6496875,136.19366866618688L216.9028125,130.39909491808484L217.1559375,140.05741594302867L217.4090625,164.32804848646597L217.6621875,183.0266313232347L217.91531250000003,177.8339556068237L218.1684375,169.9137550099904L218.4215625,158.42066924217812L218.6746875,123.98045556159353L218.9278125,127.03406227530509L219.1809375,135.02162712157647L219.43406249999998,146.28019786246784L219.68718750000002,137.80916473868209L219.9403125,141.45363825756306L220.19343750000002,145.6874294802156L220.4465625,116.35934828937421L220.69968749999998,117.83853167155877L220.9528125,94.5781152402566L221.20593749999998,109.52666254535193L221.45906250000002,105.14617656829337L221.7121875,104.62113739294692L221.9653125,107.32163630272677L222.2184375,129.99369916146617L222.4715625,137.64029847550492L222.7246875,128.38382848428003L222.97781250000003,125.58856627485399L223.2309375,132.11138487325672L223.4840625,96.34088008031641L223.7371875,69.88051381364701L223.9903125,91.17545555353577L224.2434375,118.17847325017482L224.49656249999998,121.017951935917L224.74968750000002,144.0834582195655L225.0028125,129.63473830117817L225.25593750000002,126.59453779157421L225.5090625,130.63022586576537L225.76218749999998,105.29970960053335L226.0153125,96.34806794175115L226.26843749999998,89.62499211091057L226.52156250000002,110.7189591280118L226.7746875,117.09642653392906L227.0278125,98.87123154943569L227.2809375,118.01894637497945L227.5340625,116.28421590224156L227.7871875,119.91045804264749L228.0403125,124.2368732917681L228.2934375,137.03022037263415L228.5465625,153.10348995895424L228.7996875,170.88458786665507L229.0528125,149.69657243861403L229.3059375,139.12654940286015L229.55906249999998,133.9666176058954L229.81218750000002,133.65239245240886L230.0653125,148.3929251237322L230.3184375,140.69952877131212L230.5715625,146.85694337185848L230.82468749999998,148.58720819476676L231.0778125,117.8696278548012L231.3309375,129.66886368433705L231.58406250000002,129.87767450020573L231.8371875,140.17206977067454L232.0903125,142.5231346373334L232.3434375,129.5997654054941L232.59656249999998,94.53110358280593L232.8496875,111.17360724578616L233.1028125,111.57790544102056L233.3559375,79.11900277742697L233.6090625,111.35595653810202L233.8621875,105.23352120894685L234.1153125,96.76238949535299L234.3684375,31.25161982981623L234.6215625,50.9887404915912L234.87468750000002,79.53846910893621L235.1278125,101.23328167107793L235.3809375,121.92287420846009L235.6340625,140.1263859639313L235.88718749999998,116.28244883400315L236.14031250000002,136.19189913077966L236.3934375,107.77026901518323L236.64656250000002,113.72472165098254L236.8996875,132.43740389280705L237.1528125,159.5482441841825L237.4059375,152.25309621882386L237.65906249999998,141.21332319406562L237.91218750000002,103.06060316676813L238.1653125,82.58408221530053L238.4184375,100.23821170665917L238.6715625,90.16189169174926L238.9246875,98.60678525412703L239.1778125,86.44981281545535L239.43093750000003,105.06305013919665L239.6840625,122.76393068870239L239.9371875,136.20164101743896L240.1903125,123.6596520031941L240.4434375,134.93505838643406L240.6965625,148.86351787525948L240.94968749999998,124.91349099672053L241.20281250000002,134.3826693191086L241.4559375,132.70835561336983L241.70906250000002,127.61312099294284L241.9621875,128.32260666541652L242.21531249999998,140.77609056601543L242.4684375,130.25427417000088L242.72156249999998,150.6650233769631L242.97468750000002,165.81251798514L243.2278125,144.26860350851481L243.4809375,155.97699766772817L243.7340625,155.00458030028565L243.9871875,155.8262393720354L244.2403125,162.02179031979745L244.49343750000003,157.67953698609566L244.7465625,154.3594881233937L244.9996875,167.7240326475611L245.2528125,160.9569800809655L245.5059375,137.40374120621232L245.7590625,157.46704750387875L246.01218749999998,149.1595246143878L246.26531250000002,126.47424130453385L246.5184375,129.60296406147202L246.77156250000002,146.0333394179401L247.0246875,155.56157912160174L247.27781249999998,147.9154621009379L247.5309375,132.95876977924783L247.78406249999998,168.009593895851L248.03718750000002,105.24406317632645L248.2903125,118.40214886306293L248.5434375,121.5621887090121L248.7965625,103.05713610467835L249.0496875,119.420281507098L249.3028125,126.75899027655105L249.5559375,128.63982033922747L249.8090625,120.43835835572763L250.0621875,126.17756879442582L250.3153125,118.08031076368968L250.5684375,142.09765422991734L250.8215625,120.81100544667788L251.07468749999998,110.46398671686758L251.32781250000002,120.3219821726307L251.5809375,130.7774514232184L251.8340625,145.1675363595657L252.0871875,138.69079063138688L252.34031249999998,138.10051256083065L252.5934375,124.87595172702657L252.8465625,152.54765499059354L253.09968750000002,121.07879140629765L253.3528125,124.59988896478218L253.6059375,131.35559305533442L253.8590625,154.99812395509343L254.1121875,147.35182952799516L254.3653125,148.2010739104852L254.6184375,145.82996577146898L254.8715625,153.87255055652733L255.1246875,151.35524766467563L255.3778125,153.5773294844671L255.6309375,140.8829047033076L255.8840625,155.6570797011946L256.1371875,141.02419178541484L256.3903125,139.52842449351647L256.6434375,156.1310914555731L256.89656249999996,165.769458136748L257.1496875,154.33050693705397L257.4028125,156.97567934013597L257.6559375,118.17649244849743L257.9090625,128.37116469655982L258.1621875,120.34341910907361L258.41531249999997,135.29519221442183L258.66843750000004,132.24421813803892L258.9215625,137.97705964494716L259.1746875,103.05759383046556L259.4278125,117.28243111309312L259.68093749999997,91.87950440000728L259.9340625,109.46059357104714L260.1871875,129.1411544066983L260.4403125,144.07521309963948L260.6934375,133.60670838769616L260.9465625,117.42945462475029L261.1996875,106.70272340888752L261.4528125,131.92283170421814L261.7059375,138.9182784356848L261.9590625,134.9426936982975" style="fill: none;" fill="none"></path></g></g></g></g><g opacity="0.2"><g><g><g><path stroke="rgb(255, 112, 67)" stroke-width="2px" d="M27.5653125,-59.966544433073516L27.818437499999998,114.20463401621039L28.071562500000002,-32.99670764532955L28.3246875,121.88145352493635L28.5778125,35.64619608358904L28.8309375,-129.61659163778472L29.084062499999998,94.53867345506495L29.337187500000002,-61.53864159367297L29.5903125,26.00683268633758L29.8434375,-21.829509225758624L30.096562499999997,18.80164712125606L30.349687499999998,-1.7543516700917738L30.602812500000002,-82.84671309861267L30.8559375,37.801373785192325L31.1090625,22.798427094112764L31.362187499999997,-107.75843238830562L31.6153125,-37.258437037467914L31.8684375,83.66725929216906L32.1215625,76.64161592180079L32.3746875,55.21922054074029L32.6278125,109.74130329218778L32.8809375,73.97864647345111L33.1340625,1.2492875836112516L33.3871875,-79.16302900964561L33.6403125,-36.78076080842451L33.8934375,102.25467190959237L34.1465625,77.34520648826252L34.3996875,31.790019132874253L34.6528125,57.5173030874946L34.9059375,144.29358484528282L35.159062500000005,28.76086800748653L35.412187499999995,6.843244996937863L35.6653125,63.4610896435651L35.9184375,125.0443022034385L36.1715625,19.61874633485622L36.4246875,151.55933712829244L36.677812499999995,91.4542785774578L36.9309375,146.44665254246104L37.1840625,68.2921365932985L37.4371875,83.37013230540536L37.6903125,48.631307179277606L37.9434375,29.0943446159363L38.1965625,46.896787632595434L38.4496875,134.10926485061646L38.7028125,38.41922144456345L38.9559375,75.46087662740189L39.2090625,62.92126419327477L39.4621875,96.21972357143058L39.7153125,40.858866106380134L39.96843749999999,-6.741155310110605L40.2215625,-403.0700001174753L40.4746875,50.705153801224455L40.7278125,55.292207511988565L40.9809375,153.11776721477509L41.23406249999999,178.51358865607867L41.4871875,116.19748524102299L41.7403125,118.26835867491636L41.9934375,25.621373241597965L42.2465625,92.60264848579062L42.4996875,37.21733415126803L42.7528125,-29.26650754971937L43.0059375,72.46462238918653L43.2590625,141.34988889910957L43.5121875,8.589513431895881L43.7653125,75.7349374294281L44.0184375,104.28233820741828L44.2715625,88.25800551067701L44.5246875,128.67662686651403L44.777812499999996,-16.05298847501927L45.0309375,-9.849863193251867L45.2840625,146.0094020800157L45.5371875,89.57565531947397L45.790312500000006,76.15262239629573L46.043437499999996,170.95914940400556L46.2965625,3.9335488947955293L46.5496875,54.38495356386359L46.8028125,99.11484146118164L47.055937500000006,81.04375651749699L47.309062499999996,49.77142888849433L47.5621875,96.38799642432822L47.8153125,106.98980956727809L48.0684375,81.58631538261066L48.321562500000006,61.46459386565469L48.574687499999996,61.693241617896355L48.8278125,212.80720284852111L49.0809375,102.93577174706891L49.3340625,8.025279066779413L49.5871875,122.67596610025927L49.840312499999996,84.58966690843756L50.0934375,-287.74986622550267L50.346562500000005,109.50397574901581L50.5996875,47.66506901654331L50.8528125,-58.85433232784267L51.105937499999996,96.46232612566516L51.3590625,-80.83515956185076L51.612187500000005,79.72006442330103L51.8653125,75.24119639396667L52.1184375,49.1841283386404L52.371562499999996,83.98687700791794L52.6246875,53.081018783829435L52.877812500000005,0.20656176046894326L53.1309375,98.26623604514383L53.3840625,44.76362111351708L53.637187499999996,110.22252816503699L53.8903125,207.52015516974708L54.143437500000005,145.87215588309547L54.396562499999995,46.27836451747203L54.6496875,100.8130593408238L54.9028125,105.69172525405884L55.1559375,141.75337929075414L55.409062500000005,50.933082233775764L55.662187499999995,156.36626289107582L55.9153125,124.38463809273459L56.1684375,146.90960669517517L56.4215625,140.7777420173992L56.674687500000005,59.77572714198722L56.927812499999995,132.44255317341197L57.1809375,68.17459975589405L57.4340625,-43.4184031378139L57.6871875,93.53541430560026L57.940312500000005,112.47606084563516L58.193437499999995,116.56644828753039L58.4465625,176.9707917841998L58.6996875,152.2861377434297L58.9528125,91.89478995583274L59.2059375,162.1418245488947L59.459062499999995,107.15127286044034L59.7121875,56.26813251321967L59.9653125,126.95668553222309L60.2184375,72.46922603520481L60.4715625,70.44227905706927L60.7246875,148.78851768103513L60.9778125,76.64305456118151L61.2309375,138.45573010227898L61.4840625,125.49924793026663L61.7371875,108.69531655311584L61.9903125,119.5179608410055L62.2434375,146.71318446506154L62.4965625,80.22354025190528L62.7496875,131.76495402509516L63.0028125,-186.4622208530252L63.2559375,14.57665098797193L63.5090625,99.60589703646573L63.7621875,56.181382558562554L64.0153125,6.147998538884274L64.2684375,117.19441437721252L64.5215625,153.1274540532719L64.7746875,90.75356528975747L65.0278125,117.046474294229L65.2809375,105.88263269987974L65.5340625,123.48381006717682L65.7871875,122.92849526622079L66.0403125,80.64971319111912L66.29343750000001,122.82006981156088L66.5465625,158.34012407606298L66.7996875,97.65759567780927L67.0528125,143.2761790752411L67.3059375,157.86853808706456L67.55906250000001,91.68043268810621L67.8121875,69.9918890216134L68.0653125,119.89301412755793L68.3184375,131.71536892110652L68.5715625,21.5504074313424L68.8246875,129.17880791967565L69.0778125,154.1239036430012L69.3309375,132.5278644886884L69.5840625,54.6668309731917L69.8371875,69.87996287779376L70.09031250000001,86.72273751822385L70.34343750000001,105.99815544215116L70.59656249999999,70.23228566213089L70.84968749999999,132.19683356718585L71.1028125,130.3849152218212L71.3559375,105.66630929166621L71.6090625,169.28327838941053L71.8621875,78.02520336888055L72.1153125,123.00431156158447L72.3684375,122.81839139895007L72.62156250000001,94.24408806454053L72.87468750000001,74.57035885073923L73.12781249999999,146.52942226149818L73.3809375,142.78459599885073L73.6340625,128.050866690549L73.8871875,121.96734029596502L74.1403125,111.75698092850773L74.3934375,94.03692399371756L74.6465625,145.04935006661847L74.8996875,108.44000601768494L75.15281250000001,137.6977589672262L75.4059375,132.94089785489172L75.65906249999999,91.31492237611252L75.9121875,167.9511942321604L76.1653125,85.41237681562251L76.4184375,-203.0654620365663L76.67156250000001,113.16305910457264L76.9246875,114.18118419430472L77.1778125,41.38056470047346L77.4309375,163.1251825202595L77.68406250000001,67.1373887170445L77.9371875,120.85848501595585L78.19031249999999,139.1705420559103L78.4434375,105.68822456489912L78.6965625,98.1933449831876L78.9496875,122.09528329155661L79.20281250000001,101.12346976453608L79.4559375,143.7033111073754L79.7090625,188.4793313741684L79.96218750000001,128.58268371495336L80.2153125,138.90396217866376L80.4684375,148.66335605491292L80.72156249999999,73.82658229090951L80.9746875,86.00835715640675L81.2278125,21.718488465655952L81.4809375,164.132086222822L81.73406250000001,94.01078871163456L81.9871875,168.20607317577708L82.2403125,65.95223759521137L82.49343750000001,127.2293076948686L82.7465625,183.01245377280495L82.9996875,151.38132948225194L83.25281249999999,126.3939857157794L83.5059375,47.91337817365474L83.7590625,126.68583769148046L84.0121875,209.65269827842712L84.26531250000001,68.3557244539261L84.5184375,135.9288559393449L84.7715625,126.944409142841L85.0246875,134.59873792258176L85.2778125,-153.34157730232585L85.5309375,82.3958857167851L85.7840625,69.12995221398096L86.0371875,82.73099278319965L86.2903125,73.26877384836024L86.5434375,163.38519261100075L86.79656250000001,143.37443814494392L87.0496875,167.73520650646904L87.3028125,141.3372768272053L87.5559375,-61.25278394872489L87.8090625,152.07484957304868L88.0621875,53.075551954182714L88.3153125,154.91160665858877L88.5684375,129.78696874054998L88.8215625,158.410569451072L89.07468750000001,165.68970108032227L89.32781250000001,146.93957834894007L89.5809375,119.68690505894749L89.83406249999999,100.61160187287763L90.0871875,127.35729864510624L90.3403125,148.3334280902689L90.5934375,159.03115052526647L90.8465625,159.33551866357976L91.0996875,112.20530891418457L91.3528125,115.80895669893786L91.60593750000001,-1.7756914875723742L91.85906250000001,86.0495022426952L92.1121875,83.4361658529802L92.36531249999999,157.18930848078296L92.6184375,100.76395378329538L92.8715625,193.45529726418584L93.1246875,120.90049328587271L93.3778125,85.89091622829437L93.6309375,143.8668364503167L93.8840625,160.54973030090332L94.13718750000001,162.3936823498119L94.39031250000001,153.50154824690387L94.64343749999999,37.47437105395579L94.89656249999999,116.29056520895526L95.1496875,138.5051233876835L95.4028125,195.10604004426435L95.6559375,157.5380346666683L95.9090625,144.8021438663656L96.1621875,85.36821058663456L96.4153125,175.0646425593983L96.66843750000001,156.18489841981366L96.92156250000001,92.02580204876988L97.17468749999999,49.09032905101778L97.4278125,128.95716154575348L97.6809375,108.9139417843385L97.9340625,154.4486045512286L98.1871875,152.2133425907655L98.4403125,-111.30180118300694L98.6934375,152.8494609702717L98.9465625,87.92333003607663L99.19968750000001,52.28621848063036L99.4528125,140.0586141456257L99.70593749999999,131.2954780405218L99.9590625,136.39948283542287L100.2121875,137.20411384105682L100.4653125,84.07434628226541L100.71843750000001,162.33805496042424L100.9715625,102.96492817185141L101.2246875,177.61069858074188L101.4778125,102.9779238809239L101.73093750000001,182.59198743646795L101.9840625,124.03370599313214L102.23718749999999,-81.21611126986416L102.4903125,197.9059200070121L102.7434375,131.549397891218L102.9965625,116.48612425544046L103.24968750000001,92.6601940610192L103.5028125,126.96699578111821L103.7559375,123.66632544994354L104.00906250000001,33.640732786872185L104.2621875,160.43617369911888L104.5153125,131.9822844808752L104.76843749999999,178.98421555215663L105.0215625,119.87881955233487L105.2746875,126.07240185954355L105.5278125,134.26118516921997L105.78093750000001,94.5647128278559L106.0340625,174.7141900062561L106.2871875,128.02324481443927L106.54031250000001,111.72063130682166L106.7934375,173.47547354481438L107.0465625,92.49264052781193L107.29968749999999,73.09038256515156L107.5528125,114.82857191562653L107.8059375,80.41315292228352L108.0590625,152.44055170362645L108.31218750000001,123.4169612906196L108.5653125,179.04732386632398L108.8184375,173.6064856377515L109.0715625,128.49924263087186L109.3246875,84.34246070818469L109.5778125,168.2147050120614L109.8309375,83.30913399566303L110.0840625,-4.4913151372562545L110.3371875,136.7269171584736L110.5903125,134.80427153543994L110.84343750000001,185.3774330507625L111.0965625,104.63173575834796L111.3496875,110.39343852346595L111.6028125,87.69986138560556L111.8559375,119.97496861761266L112.1090625,66.44535522027451L112.3621875,171.9878245158629L112.6153125,141.1397036855871L112.8684375,143.15768314491618L113.12156250000001,112.4236464175311L113.37468750000001,140.50123552842572L113.6278125,112.67655922066083L113.88093749999999,108.64079212058674L114.1340625,147.77197509462184L114.3871875,107.65896869789472L114.6403125,103.79780446399342L114.8934375,127.80744890733197L115.1465625,117.99300309744748L115.3996875,112.34878921508789L115.65281250000001,189.62655037099665L115.90593750000001,145.72963467511264L116.1590625,92.30547354438089L116.41218749999999,129.20830002698034L116.6653125,112.70355768637225L116.9184375,98.86221638592808L117.1715625,130.28871820189735L117.4246875,130.20326302268288L117.6778125,121.56543240763925L117.9309375,119.43039565736598L118.18406250000001,94.91046582568778L118.43718750000001,183.2658461223949L118.69031249999999,208.8684479973533L118.9434375,156.68214014443484L119.1965625,102.50763266736811L119.4496875,131.18431917103857L119.7028125,93.77638640187003L119.9559375,156.7675473690033L120.2090625,188.04045045375824L120.4621875,115.59805216572501L120.71531250000001,162.16206140951678L120.96843750000001,103.64650755578822L121.22156249999999,142.34892803972417L121.4746875,118.27564778111197L121.7278125,123.9561633305116L121.9809375,121.07735002040863L122.23406250000001,115.89680961045353L122.4871875,136.40864217281342L122.7403125,113.96917670423335L122.9934375,123.42175675522199L123.24656250000001,145.6949634660374L123.4996875,148.51992370865563L123.75281249999999,60.39314320954411L124.0059375,133.96261954307556L124.2590625,119.14180459759451L124.5121875,179.01850312406367L124.76531250000001,113.34686926278202L125.0184375,173.08752045848152L125.2715625,151.87296051328832L125.52468750000001,166.8332275694067L125.7778125,173.12502099167216L126.0309375,97.12059955163434L126.28406249999999,120.89301236109301L126.5371875,114.71338485587727L126.7903125,132.91279643232173L127.0434375,170.50880732319573L127.29656250000001,61.50204644419931L127.5496875,25.10806671055882L127.8028125,107.19961114363238L128.0559375,169.36432174119082L128.30906249999998,130.94761503826487L128.5621875,128.94435765526512L128.8153125,159.83515812050211L129.0684375,168.39223311164162L129.3215625,134.6820830973712L129.5746875,132.55634954842657L129.8278125,148.44684082811528L130.0809375,131.58565160361204L130.33406250000002,139.50267593427137L130.5871875,126.99864584749395L130.84031249999998,131.4882557175376L131.0934375,92.28010553663428L131.3465625,86.8205649961125L131.5996875,123.24868843772195L131.8528125,201.24787928841332L132.1059375,165.88737013123253L132.3590625,107.5024447332729L132.6121875,99.83886070684954L132.86531250000002,197.45294042067096L133.1184375,149.53574697537854L133.37156249999998,174.5300921201706L133.6246875,100.3600317998366L133.8778125,157.99341198531064L134.1309375,89.36969011480159L134.3840625,-5.3321039459921735L134.6371875,137.62275790084493L134.8903125,129.3921101851897L135.1434375,160.38246449557218L135.3965625,90.35506218129939L135.6496875,181.27884536439723L135.90281249999998,146.5578114119443L136.1559375,163.55682228912008L136.4090625,154.29797900806773L136.6621875,151.28086449883202L136.9153125,111.86200160329993L137.1684375,135.5582144802267L137.4215625,82.34112151102588L137.6746875,117.68777177550577L137.9278125,73.79325381192295L138.1809375,60.44737991419706L138.4340625,196.74666439403185L138.6871875,66.9277789592743L138.9403125,171.47629230672663L139.1934375,109.08600305427204L139.4465625,152.6518398740075L139.69968749999998,128.831424463879L139.9528125,174.67644969983533L140.2059375,187.1635997512124L140.45906250000002,122.40646098960529L140.7121875,181.89026710120112L140.9653125,118.22764518044211L141.2184375,189.36692391742358L141.47156249999998,129.38899313319814L141.72468750000002,176.18850764361295L141.9778125,214.1224069703709L142.2309375,173.57708943973887L142.4840625,182.7946917252107L142.7371875,138.44829713214529L142.9903125,149.20193468440664L143.2434375,128.87185023047707L143.4965625,67.76640980893916L143.74968750000002,112.86713098395954L144.0028125,135.72658324241638L144.2559375,144.35041110082105L144.5090625,164.88061029260808L144.76218749999998,135.68965816497803L145.01531250000002,127.39033939621665L145.2684375,171.34494453126734L145.52156250000002,105.95072829723358L145.7746875,128.9222026088021L146.0278125,139.3672999685461L146.2809375,157.03968998518857L146.53406249999998,120.40176496722482L146.78718750000002,174.46377084471962L147.0403125,139.25196904485875L147.2934375,98.46390509605408L147.5465625,158.18700489130887L147.7996875,105.02860840884122L148.0528125,93.36196235093205L148.30593750000003,163.76820636879313L148.5590625,164.52967819300565L148.8121875,162.14139295708048L149.0653125,134.5585519292138L149.3184375,119.79648142511195L149.5715625,148.69865067438647L149.82468749999998,138.98817053708163L150.07781250000002,130.63274483247235L150.3309375,88.06604306264359L150.58406250000002,126.86087214946747L150.8371875,173.6328606930646L151.09031249999998,62.381294879046365L151.3434375,132.65772567012093L151.59656249999998,120.27315060658887L151.84968750000002,108.33834216811441L152.1028125,135.0490320487456L152.3559375,108.87883898344907L152.6090625,143.45715990933505L152.8621875,74.78111952001399L153.1153125,-26.239370519464636L153.36843750000003,92.81619052453473L153.6215625,121.1772395480763L153.8746875,159.68894440477544L154.1278125,91.10104465484619L154.3809375,142.93004244024104L154.6340625,178.69197993928736L154.88718749999998,133.0046775341034L155.14031250000002,50.291784752499L155.3934375,159.58449918573552L155.64656250000002,84.68917279893702L155.8996875,76.80058557336982L156.15281249999998,146.41768793626264L156.4059375,189.24065933444282L156.65906249999998,132.29072876410052L156.91218750000002,66.13456115939401L157.1653125,154.9030707315965L157.4184375,157.47967386245728L157.6715625,47.24676063927738L157.9246875,93.6960144151341L158.1778125,71.84984382716092L158.4309375,158.08495740457013L158.6840625,185.88795821233228L158.9371875,180.55957362868568L159.1903125,92.69414595040409L159.4434375,162.4725677425211L159.6965625,133.2479514533823L159.94968749999998,178.11393463611603L160.20281250000002,127.56216089292005L160.4559375,95.99059627272867L160.7090625,140.43764766779813L160.9621875,129.9099724076011L161.21531249999998,133.1680590131066L161.4684375,119.15882849693298L161.7215625,180.07010055672038L161.97468750000002,-17.360280080275096L162.2278125,135.85150509530848L162.4809375,158.4783773205497L162.7340625,175.2104726379568L162.98718749999998,97.28762558373539L163.2403125,129.79516898502004L163.4934375,129.70026674053886L163.7465625,160.00697961720553L163.9996875,113.49485730041157L164.2528125,190.8679522926157L164.5059375,82.00414421341638L164.7590625,177.10026932846415L165.0121875,96.65908403830096L165.26531250000002,148.64144078168002L165.5184375,114.58141367001966L165.7715625,164.19677704030818L166.0246875,116.50118201429194L166.27781249999998,111.17083129015836L166.53093750000002,204.35639535297045L166.7840625,101.88954523476689L167.03718750000002,132.39747580614957L167.2903125,-26.37062238563189L167.5434375,145.67371955784884L167.7965625,101.97188336198981L168.04968749999998,166.5085746158253L168.30281250000002,128.71690876917407L168.5559375,116.54477278752759L168.8090625,153.65922312303022L169.0621875,121.02838832681829L169.3153125,99.59366860172965L169.5684375,147.60964861783114L169.82156250000003,89.03482282161713L170.0746875,93.49810559099372L170.3278125,154.1570882580497L170.5809375,93.23382753675635L170.8340625,-193.79055394909594L171.0871875,145.19446082548663L171.34031249999998,89.85302499207585L171.59343750000002,123.02675433592364L171.8465625,133.7456247698177L172.09968750000002,164.8490561355244L172.3528125,98.9008678306233L172.60593749999998,127.60565575686368L172.8590625,172.7917362018065L173.11218749999998,151.52380273558876L173.36531250000002,133.57375531846827L173.6184375,95.10995715314692L173.8715625,112.61162862994455L174.1246875,165.184163201939L174.3778125,135.098089651628L174.6309375,102.28646583990619L174.88406250000003,92.04325753992255L175.1371875,185.9713033871217L175.3903125,62.08335266330026L175.6434375,173.55546189438212L175.8965625,105.60449575294147L176.1496875,176.8893647952513L176.40281249999998,68.35951287096198L176.65593750000002,98.4261647896333L176.9090625,146.12219140746376L177.16218750000002,161.19985143704847L177.4153125,76.41109793836421L177.66843749999998,116.29478521780536L177.9215625,112.72125295075504L178.17468749999998,134.05632292140615L178.42781250000002,126.59151090275158L178.6809375,172.95636450160634L178.9340625,115.60294353961945L179.1871875,159.16868445006284L179.4403125,154.50380034880206L179.6934375,100.18557279760188L179.9465625,140.45874771204862L180.1996875,156.18681660565463L180.4528125,107.4618271480907L180.7059375,143.57810152660716L180.9590625,178.20595960183576L181.2121875,71.91822715239093L181.46531249999998,183.36352973634547L181.71843750000002,34.882086753845236L181.9715625,117.71994934298776L182.2246875,-42.292859640988425L182.4778125,86.26462678475815L182.73093749999998,135.81002432649785L182.9840625,152.3006200465289L183.2371875,135.9278009371324L183.49031250000002,87.20314716209064L183.7434375,80.62607155062936L183.9965625,115.77275094118986L184.2496875,180.53190379792994L184.5028125,193.5459794998169L184.7559375,99.98411532965574L185.0090625,101.94200761751696L185.2621875,172.35544483228162L185.5153125,48.92124096913773L185.7684375,123.01706749742681L186.0215625,167.69621937925166L186.2746875,169.42392936619845L186.5278125,119.7553363388235L186.78093750000002,122.03452475504443L187.0340625,175.14923455498436L187.2871875,87.65511970086533L187.5403125,195.84895342046565L187.79343749999998,102.53443931449543L188.0465625,180.63188923488963L188.2996875,163.2929758266969L188.55281250000002,118.53316423025998L188.8059375,128.3818496574055L189.0590625,142.8643925298344L189.3121875,137.78331005573273L189.56531249999998,146.62921587987378L189.81843750000002,76.74428681893784L190.0715625,109.95753079110926L190.3246875,113.89254517988726L190.5778125,117.21119850332087L190.8309375,115.46358733827418L191.0840625,120.93128016862003L191.3371875,161.2461756251075L191.5903125,184.77238928187975L191.8434375,129.83885566754773L192.0965625,141.8057937188582L192.3496875,74.74424239722165L192.6028125,59.29829068617388L192.85593749999998,150.31855861707166L193.10906250000002,-43.094757231799015L193.3621875,144.44876607981595L193.61531250000002,207.6202844706449L193.8684375,72.59769653190266L194.1215625,138.66538781469518L194.3746875,166.43386127732018L194.62781249999998,173.27967472509903L194.88093750000002,148.63381599296224L195.1340625,130.83151684024116L195.3871875,121.29348161003806L195.6403125,143.63497573679143L195.8934375,106.03301846981049L196.1465625,155.3194609230215L196.39968750000003,74.51012781533329L196.6528125,150.5520018339157L196.9059375,136.69071140072563L197.1590625,138.08369795842603L197.4121875,164.13059962879527L197.6653125,117.96293553439054L197.91843749999998,120.69404853474012L198.17156250000002,143.95440163395622L198.4246875,183.31073167107323L198.67781250000002,119.85225267843768L198.9309375,95.73149732026188L199.18406249999998,141.97109338370237L199.4371875,133.55663550983775L199.69031249999998,179.51042188297617L199.94343750000002,132.88100250200793L200.1965625,104.32386693087491L200.4496875,87.25095794417642L200.7028125,113.47989545085214L200.9559375,145.71093236316335L201.2090625,19.27270560914821L201.4621875,185.55716706405985L201.7153125,134.82436453212392L201.9684375,144.63967352563685L202.2215625,170.57488882541656L202.4746875,221.6556982235475L202.7278125,116.48281538486481L202.98093749999998,156.88580352609807L203.23406250000002,186.52239817922765L203.4871875,194.68873871456492L203.74031250000002,127.984497460452L203.9934375,158.9418589743701L204.24656249999998,143.64523803104055L204.4996875,40.80510894818741L204.7528125,102.62761519171976L205.00593750000002,177.52845636281103L205.2590625,92.14261956648394L205.5121875,74.04031614823776L205.7653125,112.29028454693882L206.0184375,194.99919709292323L206.2715625,166.87547561255369L206.5246875,160.17846543138677L206.7778125,46.178954536264605L207.0309375,115.67175845666364L207.2840625,104.73531779375944L207.5371875,197.26284820383245L207.7903125,79.96587993881921L208.0434375,140.2310110980814L208.29656250000002,116.13547988371417L208.5496875,169.46392354098234L208.8028125,155.6361534053629L209.0559375,163.2498645999215L209.30906249999998,-40.05596722256051L209.5621875,158.9869842962785L209.8153125,103.78782989762045L210.06843750000002,188.4857093420896L210.3215625,132.4758336977525L210.5746875,160.21289686723188L210.8278125,170.00394080985677L211.08093749999998,153.7233384847641L211.33406250000002,99.51353638822383L211.5871875,97.74890132383868L211.8403125,143.31751598011363L212.0934375,145.15748779340223L212.3465625,120.29516178911382L212.5996875,25.056899103251386L212.8528125,73.19358096339487L213.1059375,137.65685365416786L213.35906250000002,82.5001391172409L213.6121875,143.24404946240512L213.8653125,125.01159713485025L214.1184375,121.73931595412168L214.37156249999998,111.50378039750187L214.62468750000002,152.3126566626809L214.8778125,131.2685275294564L215.13093750000002,155.93179379809987L215.3840625,139.93537070534447L215.6371875,141.58793576197192L215.8903125,160.24521829865196L216.14343749999998,156.83511546525088L216.39656250000002,121.52227322621778L216.6496875,130.82096681811592L216.9028125,121.70723429593174L217.1559375,154.54489748044446L217.4090625,200.73399730162188L217.6621875,211.07450557838786L217.91531250000003,170.04494203220713L218.1684375,158.03345411474055L218.4215625,141.18104059045965L218.6746875,72.3201350407167L218.9278125,131.61447234587237L219.1809375,147.00297439098358L219.43406249999998,163.16805397380483L219.68718750000002,125.10261505300349L219.9403125,146.9203485358845L220.19343750000002,152.0381163141944L220.4465625,72.36722650311212L220.69968749999998,120.0573067448356L220.9528125,59.68749059330335L221.20593749999998,131.9494835029949L221.45906250000002,98.57544760270551L221.7121875,103.83357862992719L221.9653125,111.37238466739655L222.2184375,164.00179344957525L222.4715625,149.11019744656303L222.7246875,114.49912349744275L222.97781250000003,121.39567296071485L223.2309375,141.89561277086085L223.4840625,42.685122890905916L223.7371875,30.189964413642905L223.9903125,123.11786816336893L224.2434375,158.6829997951334L224.49656249999998,125.27716996453024L224.74968750000002,178.68171764503825L225.0028125,107.96165842359717L225.25593750000002,122.03423702716827L225.5090625,136.68375797705218L225.76218749999998,67.30393520268528L226.0153125,82.92060545357792L226.26843749999998,79.5403783646497L226.52156250000002,142.35990965366364L226.7746875,126.66262764280492L227.0278125,71.53343907269566L227.2809375,146.7405186132951L227.5340625,113.68212019313465L227.7871875,125.34982125325635L228.0403125,130.72649616544896L228.2934375,156.22024099393323L228.5465625,177.2133943384344L228.7996875,197.55623472820628L229.0528125,117.9145492965525L229.3059375,123.2715148492293L229.55906249999998,126.22671991044825L229.81218750000002,133.18105472217906L230.0653125,170.5037241307172L230.3184375,129.159434242682L230.5715625,156.09306527267802L230.82468749999998,151.18260542912915L231.0778125,71.79325734485279L231.3309375,147.36771742864087L231.58406250000002,130.19089072400874L231.8371875,155.61366267637774L232.0903125,146.04973193732175L232.3434375,110.21471155773511L232.59656249999998,41.92811084877363L232.8496875,136.13736274025658L233.1028125,112.18435273387216L233.3559375,30.430648782036545L233.6090625,159.7113871791146L233.8621875,96.04986821521415L234.1153125,84.05569192496213L234.3684375,-67.0145346684889L234.6215625,80.59442148425363L234.87468750000002,122.36306203495374L235.1278125,133.77550051429054L235.3809375,152.9572630145333L235.6340625,167.43165359713814L235.88718749999998,80.51654313911091L236.14031250000002,166.0560745759444L236.3934375,65.13782384178857L236.64656250000002,122.65640060468152L236.8996875,160.5064272555438L237.1528125,200.21450462124565L237.4059375,141.31037427078593L237.65906249999998,124.65366365692832L237.91218750000002,45.8315231258219L238.1653125,51.869300788099125L238.4184375,126.71940594369715L238.6715625,75.04741166938435L238.9246875,111.2741255976937L239.1778125,68.21435415744783L239.43093750000003,132.98290612480858L239.6840625,149.31525151296094L239.9371875,156.35820651054382L240.1903125,104.84666848182678L240.4434375,151.848167961294L240.6965625,169.75620710849762L240.94968749999998,88.98845067891209L241.20281250000002,148.58643680269068L241.4559375,130.1968850547617L241.70906250000002,119.97026906230234L241.9621875,129.38683517412707L242.21531249999998,159.4563164169138L242.4684375,114.47154957597907L242.72156249999998,181.28114718740636L242.97468750000002,188.53375989740545L243.2278125,111.95273179357703L243.4809375,173.53958890654823L243.7340625,153.54595424912193L243.9871875,157.05872797966003L244.2403125,171.3151167414405L244.49343750000003,151.16615698554298L244.7465625,149.37941482934085L244.9996875,187.7708494338122L245.2528125,150.80640123107216L245.5059375,102.07388289408252L245.7590625,187.56200695037842L246.01218749999998,136.69824028015137L246.26531250000002,92.4463163397529L246.5184375,134.29604819687933L246.77156250000002,170.67890245264226L247.0246875,169.8539386770942L247.27781249999998,136.44628656994212L247.5309375,110.52373129671271L247.78406249999998,220.5858300707557L248.03718750000002,11.095767097039683L248.2903125,138.13927739316767L248.5434375,126.30224847793579L248.7965625,75.29955719817768L249.0496875,143.9649996107275L249.3028125,137.76705343073064L249.5559375,131.4610654332421L249.8090625,108.1361653804779L250.0621875,134.78638445247304L250.3153125,105.93442371758549L250.5684375,178.12366942925885L250.8215625,88.8810322718187L251.07468749999998,94.94345862215216L251.32781250000002,135.10897535627538L251.5809375,146.4606552991L251.8340625,166.75266376408663L252.0871875,128.9756720391187L252.34031249999998,137.2150954549963L252.5934375,105.03911047632045L252.8465625,194.055209885944L253.09968750000002,73.87549602985384L253.3528125,129.88153530250895L253.6059375,141.4891491911628L253.8590625,190.46192030473188L254.1121875,135.88238788734782L254.3653125,149.47494048422033L254.6184375,142.2733035629446L254.8715625,165.93642773411491L255.1246875,147.57929332689807L255.3778125,156.91045221415433L255.6309375,121.84126753156835L255.8840625,177.81834219802508L256.1371875,119.07485991174525L256.3903125,137.28477355566892L256.6434375,181.03509189865807L256.89656249999996,180.2270081585104L257.1496875,137.1720801375129L257.4028125,160.943437944759L257.6559375,59.9777121110396L257.9090625,143.66317306865346L258.1621875,108.30180072784424L258.41531249999997,157.72285187244415L258.66843750000004,127.66775702346455L258.9215625,146.5763219053095L259.1746875,50.67839510874315L259.4278125,138.61968703703448L259.68093749999997,53.77511433037846L259.9340625,135.8322273276069L260.1871875,158.66199566017497L260.4403125,166.47630113905126L260.6934375,117.90395131978123L260.9465625,93.16357398033142L261.1996875,90.61262658509342L261.4528125,169.75299414721403L261.7059375,149.41144853288478L261.9590625,128.9793165922165" style="fill: none;" fill="none"></path></g></g></g></g></g></g><g transform="translate(51, 177)" clip-path="url(#clip_1)"><clipPath id="clip_1"><rect width="278" height="23"></rect></clipPath><g><g><line x1="0" y1="0" x2="0" y2="5" style="visibility: inherit;" fill="rgb(0, 0, 0)" stroke="rgb(204, 204, 204)" stroke-width="1px"></line><line x1="25.3125" y1="0" x2="25.3125" y2="5" style="visibility: inherit;" fill="rgb(0, 0, 0)" stroke="rgb(204, 204, 204)" stroke-width="1px"></line><line x1="50.625" y1="0" x2="50.625" y2="5" style="visibility: inherit;" fill="rgb(0, 0, 0)" stroke="rgb(204, 204, 204)" stroke-width="1px"></line><line x1="75.9375" y1="0" x2="75.9375" y2="5" style="visibility: inherit;" fill="rgb(0, 0, 0)" stroke="rgb(204, 204, 204)" stroke-width="1px"></line><line x1="101.25" y1="0" x2="101.25" y2="5" style="visibility: inherit;" fill="rgb(0, 0, 0)" stroke="rgb(204, 204, 204)" stroke-width="1px"></line><line x1="126.5625" y1="0" x2="126.5625" y2="5" style="visibility: inherit;" fill="rgb(0, 0, 0)" stroke="rgb(204, 204, 204)" stroke-width="1px"></line><line x1="151.875" y1="0" x2="151.875" y2="5" style="visibility: inherit;" fill="rgb(0, 0, 0)" stroke="rgb(204, 204, 204)" stroke-width="1px"></line><line x1="177.1875" y1="0" x2="177.1875" y2="5" style="visibility: inherit;" fill="rgb(0, 0, 0)" stroke="rgb(204, 204, 204)" stroke-width="1px"></line><line x1="202.5" y1="0" x2="202.5" y2="5" style="visibility: inherit;" fill="rgb(0, 0, 0)" stroke="rgb(204, 204, 204)" stroke-width="1px"></line><line x1="227.8125" y1="0" x2="227.8125" y2="5" style="visibility: inherit;" fill="rgb(0, 0, 0)" stroke="rgb(204, 204, 204)" stroke-width="1px"></line><line x1="253.125" y1="0" x2="253.125" y2="5" style="visibility: inherit;" fill="rgb(0, 0, 0)" stroke="rgb(204, 204, 204)" stroke-width="1px"></line><line x1="278.4375" y1="0" x2="278.4375" y2="5" style="visibility: inherit;" fill="rgb(0, 0, 0)" stroke="rgb(204, 204, 204)" stroke-width="1px"></line></g><g transform="translate(0, 8)"><text x="0" y="0" dx="0em" dy="0.95em" style="text-anchor: middle; visibility: hidden; font-family: Roboto, sans-serif; font-size: 12px; font-weight: 200;" fill="rgb(33, 33, 33)" stroke="none" stroke-width="1px">-1k</text><text x="25.3125" y="0" dx="0em" dy="0.95em" style="text-anchor: middle; visibility: inherit; font-family: Roboto, sans-serif; font-size: 12px; font-weight: 200;" fill="rgb(33, 33, 33)" stroke="none" stroke-width="1px">0</text><text x="50.625" y="0" dx="0em" dy="0.95em" style="text-anchor: middle; visibility: inherit; font-family: Roboto, sans-serif; font-size: 12px; font-weight: 200;" fill="rgb(33, 33, 33)" stroke="none" stroke-width="1px">1k</text><text x="75.9375" y="0" dx="0em" dy="0.95em" style="text-anchor: middle; visibility: inherit; font-family: Roboto, sans-serif; font-size: 12px; font-weight: 200;" fill="rgb(33, 33, 33)" stroke="none" stroke-width="1px">2k</text><text x="101.25" y="0" dx="0em" dy="0.95em" style="text-anchor: middle; visibility: inherit; font-family: Roboto, sans-serif; font-size: 12px; font-weight: 200;" fill="rgb(33, 33, 33)" stroke="none" stroke-width="1px">3k</text><text x="126.5625" y="0" dx="0em" dy="0.95em" style="text-anchor: middle; visibility: inherit; font-family: Roboto, sans-serif; font-size: 12px; font-weight: 200;" fill="rgb(33, 33, 33)" stroke="none" stroke-width="1px">4k</text><text x="151.875" y="0" dx="0em" dy="0.95em" style="text-anchor: middle; visibility: inherit; font-family: Roboto, sans-serif; font-size: 12px; font-weight: 200;" fill="rgb(33, 33, 33)" stroke="none" stroke-width="1px">5k</text><text x="177.1875" y="0" dx="0em" dy="0.95em" style="text-anchor: middle; visibility: inherit; font-family: Roboto, sans-serif; font-size: 12px; font-weight: 200;" fill="rgb(33, 33, 33)" stroke="none" stroke-width="1px">6k</text><text x="202.5" y="0" dx="0em" dy="0.95em" style="text-anchor: middle; visibility: inherit; font-family: Roboto, sans-serif; font-size: 12px; font-weight: 200;" fill="rgb(33, 33, 33)" stroke="none" stroke-width="1px">7k</text><text x="227.8125" y="0" dx="0em" dy="0.95em" style="text-anchor: middle; visibility: inherit; font-family: Roboto, sans-serif; font-size: 12px; font-weight: 200;" fill="rgb(33, 33, 33)" stroke="none" stroke-width="1px">8k</text><text x="253.125" y="0" dx="0em" dy="0.95em" style="text-anchor: middle; visibility: inherit; font-family: Roboto, sans-serif; font-size: 12px; font-weight: 200;" fill="rgb(33, 33, 33)" stroke="none" stroke-width="1px">9k</text><text x="278.4375" y="0" dx="0em" dy="0.95em" style="text-anchor: middle; visibility: hidden; font-family: Roboto, sans-serif; font-size: 12px; font-weight: 200;" fill="rgb(33, 33, 33)" stroke="none" stroke-width="1px">10k</text></g><line x1="0" y1="0" x2="278.4375" y2="0" fill="rgb(0, 0, 0)" stroke="rgb(204, 204, 204)" stroke-width="1px"></line></g></g></g></g></svg>