<svg xmlns="http://www.w3.org/2000/svg" xmlns:xlink="http://www.w3.org/1999/xlink" contentStyleType="text/css" data-diagram-type="ACTIVITY" height="991px" preserveAspectRatio="none" style="width:599px;height:991px;background:#FFFFFF;" version="1.1" viewBox="0 0 599 991" width="599px" zoomAndPan="magnify"><?plantuml 1.2026.3beta6?><defs/><g><g class="title" data-source-line="1"><text fill="#000000" font-family="sans-serif" font-size="14" font-weight="700" lengthAdjust="spacing" textLength="213.3633" x="192.1521" y="32.9951">Dataset and Preprocessing</text><text fill="#000000" font-family="sans-serif" font-size="14" font-weight="700" lengthAdjust="spacing" textLength="378.3145" x="109.6765" y="49.292">SmallMinesDS for Informal Mining Site Mapping</text></g><ellipse cx="106.9766" cy="78.5938" fill="#222222" rx="10" ry="10" style="stroke:#222222;stroke-width:1;"/><path d="M190.0303,98.5938 L190.0303,137.4258 L170.0303,141.4258 L190.0303,145.4258 L190.0303,184.2578 A0,0 0 0 0 190.0303,184.2578 L578.6675,184.2578 A0,0 0 0 0 578.6675,184.2578 L578.6675,108.5938 L568.6675,98.5938 L190.0303,98.5938 A0,0 0 0 0 190.0303,98.5938" fill="#FEFFDD" style="stroke:#181818;stroke-width:0.5;"/><path d="M568.6675,98.5938 L568.6675,108.5938 L578.6675,108.5938 L568.6675,98.5938" fill="#FEFFDD" style="stroke:#181818;stroke-width:0.5;"/><text fill="#000000" font-family="sans-serif" font-size="13" lengthAdjust="spacing" textLength="90.6826" x="196.0303" y="115.6606">Dataset used:</text><text fill="#000000" font-family="sans-serif" font-size="13" lengthAdjust="spacing" textLength="92.2061" x="196.0303" y="130.7935">SmallMinesDS</text><text fill="#000000" font-family="sans-serif" font-size="13" lengthAdjust="spacing" textLength="4.1323" x="196.0303" y="145.9263">&#160;</text><text fill="#000000" font-family="sans-serif" font-size="13" lengthAdjust="spacing" textLength="49.3149" x="196.0303" y="161.0591">Source:</text><text fill="#000000" font-family="sans-serif" font-size="13" lengthAdjust="spacing" textLength="367.6372" x="196.0303" y="176.1919">https://huggingface.co/datasets/ellaampy/SmallMinesDS</text><rect fill="#F1F1F1" height="33.9688" rx="12.5" ry="12.5" style="stroke:#181818;stroke-width:0.5;" width="126.1074" x="43.9229" y="124.4414"/><text fill="#000000" font-family="sans-serif" font-size="12" lengthAdjust="spacing" textLength="106.1074" x="53.9229" y="145.5801">Dataset Selection</text><path d="M217.124,194.2578 L217.124,255.7891 L197.124,259.7891 L217.124,263.7891 L217.124,325.3203 A0,0 0 0 0 217.124,325.3203 L476.9355,325.3203 A0,0 0 0 0 476.9355,325.3203 L476.9355,204.2578 L466.9355,194.2578 L217.124,194.2578 A0,0 0 0 0 217.124,194.2578" fill="#FEFFDD" style="stroke:#181818;stroke-width:0.5;"/><path d="M466.9355,194.2578 L466.9355,204.2578 L476.9355,204.2578 L466.9355,194.2578" fill="#FEFFDD" style="stroke:#181818;stroke-width:0.5;"/><text fill="#000000" font-family="sans-serif" font-size="13" lengthAdjust="spacing" textLength="128.4575" x="223.124" y="211.3247">Multitemporal data:</text><text fill="#000000" font-family="sans-serif" font-size="13" lengthAdjust="spacing" textLength="77.2764" x="223.124" y="226.4575">- T1 = 2016</text><text fill="#000000" font-family="sans-serif" font-size="13" lengthAdjust="spacing" textLength="77.2764" x="223.124" y="241.5903">- T2 = 2022</text><text fill="#000000" font-family="sans-serif" font-size="13" lengthAdjust="spacing" textLength="4.1323" x="223.124" y="256.7231">&#160;</text><text fill="#000000" font-family="sans-serif" font-size="13" lengthAdjust="spacing" textLength="70.8145" x="223.124" y="271.856">Data used:</text><text fill="#000000" font-family="sans-serif" font-size="13" lengthAdjust="spacing" textLength="238.8115" x="223.124" y="286.9888">- Sentinel-2 (13 multispectral bands)</text><text fill="#000000" font-family="sans-serif" font-size="13" lengthAdjust="spacing" textLength="208.5522" x="223.124" y="302.1216">- Sentinel-1 (SAR) [if applicable]</text><text fill="#000000" font-family="sans-serif" font-size="13" lengthAdjust="spacing" textLength="131.5298" x="223.124" y="317.2544">- DEM [if applicable]</text><rect fill="#F1F1F1" height="33.9688" rx="12.5" ry="12.5" style="stroke:#181818;stroke-width:0.5;" width="180.2949" x="16.8291" y="242.8047"/><text fill="#000000" font-family="sans-serif" font-size="12" lengthAdjust="spacing" textLength="160.2949" x="26.8291" y="263.9434">Satellite Image Acquisition</text><path d="M212.0498,335.3203 L212.0498,381.7188 L192.0498,385.7188 L212.0498,389.7188 L212.0498,436.1172 A0,0 0 0 0 212.0498,436.1172 L382.937,436.1172 A0,0 0 0 0 382.937,436.1172 L382.937,345.3203 L372.937,335.3203 L212.0498,335.3203 A0,0 0 0 0 212.0498,335.3203" fill="#FEFFDD" style="stroke:#181818;stroke-width:0.5;"/><path d="M372.937,335.3203 L372.937,345.3203 L382.937,345.3203 L372.937,335.3203" fill="#FEFFDD" style="stroke:#181818;stroke-width:0.5;"/><text fill="#000000" font-family="sans-serif" font-size="13" lengthAdjust="spacing" textLength="116.5493" x="218.0498" y="352.3872">Reference masks:</text><text fill="#000000" font-family="sans-serif" font-size="13" lengthAdjust="spacing" textLength="146.1484" x="218.0498" y="367.52">- Informal mining sites</text><text fill="#000000" font-family="sans-serif" font-size="13" lengthAdjust="spacing" textLength="149.8872" x="218.0498" y="382.6528">- Reference year: 2022</text><text fill="#000000" font-family="sans-serif" font-size="13" lengthAdjust="spacing" textLength="4.1323" x="218.0498" y="397.7856">&#160;</text><text fill="#000000" font-family="sans-serif" font-size="13" lengthAdjust="spacing" textLength="139.6675" x="218.0498" y="412.9185">Supervision based on</text><text fill="#000000" font-family="sans-serif" font-size="13" lengthAdjust="spacing" textLength="138.5313" x="218.0498" y="428.0513">consolidated labeling</text><rect fill="#F1F1F1" height="33.9688" rx="12.5" ry="12.5" style="stroke:#181818;stroke-width:0.5;" width="170.1465" x="21.9033" y="368.7344"/><text fill="#000000" font-family="sans-serif" font-size="12" lengthAdjust="spacing" textLength="150.1465" x="31.9033" y="389.873">Ground Truth Acquisition</text><path d="M217.1797,446.1172 L217.1797,484.9492 L197.1797,488.9492 L217.1797,492.9492 L217.1797,531.7813 A0,0 0 0 0 217.1797,531.7813 L423.3853,531.7813 A0,0 0 0 0 423.3853,531.7813 L423.3853,456.1172 L413.3853,446.1172 L217.1797,446.1172 A0,0 0 0 0 217.1797,446.1172" fill="#FEFFDD" style="stroke:#181818;stroke-width:0.5;"/><path d="M413.3853,446.1172 L413.3853,456.1172 L423.3853,456.1172 L413.3853,446.1172" fill="#FEFFDD" style="stroke:#181818;stroke-width:0.5;"/><text fill="#000000" font-family="sans-serif" font-size="13" lengthAdjust="spacing" textLength="179.2959" x="223.1797" y="463.1841">Spatial alignment between:</text><text fill="#000000" font-family="sans-serif" font-size="13" lengthAdjust="spacing" textLength="159.8657" x="223.1797" y="478.3169">T1 (2016) and T2 (2022)</text><text fill="#000000" font-family="sans-serif" font-size="13" lengthAdjust="spacing" textLength="4.1323" x="223.1797" y="493.4497">&#160;</text><text fill="#000000" font-family="sans-serif" font-size="13" lengthAdjust="spacing" textLength="66.022" x="223.1797" y="508.5825">Objective:</text><text fill="#000000" font-family="sans-serif" font-size="13" lengthAdjust="spacing" textLength="185.2056" x="223.1797" y="523.7153">Preserve spatial consistency</text><rect fill="#F1F1F1" height="33.9688" rx="12.5" ry="12.5" style="stroke:#181818;stroke-width:0.5;" width="180.4063" x="16.7734" y="471.9648"/><text fill="#000000" font-family="sans-serif" font-size="12" lengthAdjust="spacing" textLength="160.4063" x="26.7734" y="493.1035">Multitemporal Registration</text><path d="M195.0107,541.7813 L195.0107,565.4805 L175.0107,569.4805 L195.0107,573.4805 L195.0107,597.1797 A0,0 0 0 0 195.0107,597.1797 L373.4834,597.1797 A0,0 0 0 0 373.4834,597.1797 L373.4834,551.7813 L363.4834,541.7813 L195.0107,541.7813 A0,0 0 0 0 195.0107,541.7813" fill="#FEFFDD" style="stroke:#181818;stroke-width:0.5;"/><path d="M363.4834,541.7813 L363.4834,551.7813 L373.4834,551.7813 L363.4834,541.7813" fill="#FEFFDD" style="stroke:#181818;stroke-width:0.5;"/><text fill="#000000" font-family="sans-serif" font-size="13" lengthAdjust="spacing" textLength="157.4727" x="201.0107" y="558.8481">- Radiometric correction</text><text fill="#000000" font-family="sans-serif" font-size="13" lengthAdjust="spacing" textLength="95.2656" x="201.0107" y="573.981">- Value scaling</text><text fill="#000000" font-family="sans-serif" font-size="13" lengthAdjust="spacing" textLength="151.2202" x="201.0107" y="589.1138">- Input homogenization</text><rect fill="#F1F1F1" height="33.9688" rx="12.5" ry="12.5" style="stroke:#181818;stroke-width:0.5;" width="136.0684" x="38.9424" y="552.4961"/><text fill="#000000" font-family="sans-serif" font-size="12" lengthAdjust="spacing" textLength="116.0684" x="48.9424" y="573.6348">Data Normalization</text><path d="M189.1045,614.0313 L189.1045,630.1641 L169.1045,634.1641 L189.1045,638.1641 L189.1045,654.2969 A0,0 0 0 0 189.1045,654.2969 L385.6299,654.2969 A0,0 0 0 0 385.6299,654.2969 L385.6299,624.0313 L375.6299,614.0313 L189.1045,614.0313 A0,0 0 0 0 189.1045,614.0313" fill="#FEFFDD" style="stroke:#181818;stroke-width:0.5;"/><path d="M375.6299,614.0313 L375.6299,624.0313 L385.6299,624.0313 L375.6299,614.0313" fill="#FEFFDD" style="stroke:#181818;stroke-width:0.5;"/><text fill="#000000" font-family="sans-serif" font-size="13" lengthAdjust="spacing" textLength="170.5234" x="195.1045" y="631.0981">Split into training samples</text><text fill="#000000" font-family="sans-serif" font-size="13" lengthAdjust="spacing" textLength="175.5254" x="195.1045" y="646.231">for semantic segmentation</text><rect fill="#F1F1F1" height="33.9688" rx="12.5" ry="12.5" style="stroke:#181818;stroke-width:0.5;" width="124.2559" x="44.8486" y="617.1797"/><text fill="#000000" font-family="sans-serif" font-size="12" lengthAdjust="spacing" textLength="104.2559" x="54.8486" y="638.3184">Patch Generation</text><path d="M175.6836,664.2969 L175.6836,718.2617 L155.6836,722.2617 L175.6836,726.2617 L175.6836,780.2266 A0,0 0 0 0 175.6836,780.2266 L396.5396,780.2266 A0,0 0 0 0 396.5396,780.2266 L396.5396,674.2969 L386.5396,664.2969 L175.6836,664.2969 A0,0 0 0 0 175.6836,664.2969" fill="#FEFFDD" style="stroke:#181818;stroke-width:0.5;"/><path d="M386.5396,664.2969 L386.5396,674.2969 L396.5396,674.2969 L386.5396,664.2969" fill="#FEFFDD" style="stroke:#181818;stroke-width:0.5;"/><text fill="#000000" font-family="sans-serif" font-size="13" lengthAdjust="spacing" textLength="41.9263" x="181.6836" y="681.3638">- Train</text><text fill="#000000" font-family="sans-serif" font-size="13" lengthAdjust="spacing" textLength="74.0264" x="181.6836" y="696.4966">- Validation</text><text fill="#000000" font-family="sans-serif" font-size="13" lengthAdjust="spacing" textLength="4.1323" x="181.6836" y="711.6294">&#160;</text><text fill="#000000" font-family="sans-serif" font-size="13" lengthAdjust="spacing" textLength="126.9849" x="181.6836" y="726.7622">Validation used for:</text><text fill="#000000" font-family="sans-serif" font-size="13" lengthAdjust="spacing" textLength="137.1284" x="181.6836" y="741.895">- Training monitoring</text><text fill="#000000" font-family="sans-serif" font-size="13" lengthAdjust="spacing" textLength="110.4175" x="181.6836" y="757.0278">- Model selection</text><text fill="#000000" font-family="sans-serif" font-size="13" lengthAdjust="spacing" textLength="199.856" x="181.6836" y="772.1606">- Final performance evaluation</text><rect fill="#F1F1F1" height="33.9688" rx="12.5" ry="12.5" style="stroke:#181818;stroke-width:0.5;" width="97.4141" x="58.2695" y="705.2773"/><text fill="#000000" font-family="sans-serif" font-size="12" lengthAdjust="spacing" textLength="77.4141" x="68.2695" y="726.416">Dataset Split</text><path d="M217.9531,790.2266 L217.9531,829.0586 L197.9531,833.0586 L217.9531,837.0586 L217.9531,875.8906 A0,0 0 0 0 217.9531,875.8906 L387.2534,875.8906 A0,0 0 0 0 387.2534,875.8906 L387.2534,800.2266 L377.2534,790.2266 L217.9531,790.2266 A0,0 0 0 0 217.9531,790.2266" fill="#FEFFDD" style="stroke:#181818;stroke-width:0.5;"/><path d="M377.2534,790.2266 L377.2534,800.2266 L387.2534,800.2266 L377.2534,790.2266" fill="#FEFFDD" style="stroke:#181818;stroke-width:0.5;"/><text fill="#000000" font-family="sans-serif" font-size="13" lengthAdjust="spacing" textLength="134.583" x="223.9531" y="807.2935">Input adaptation for:</text><text fill="#000000" font-family="sans-serif" font-size="13" lengthAdjust="spacing" textLength="148.3003" x="223.9531" y="822.4263">Prithvi EO 2.0 TL 600M</text><text fill="#000000" font-family="sans-serif" font-size="13" lengthAdjust="spacing" textLength="4.1323" x="223.9531" y="837.5591">&#160;</text><text fill="#000000" font-family="sans-serif" font-size="13" lengthAdjust="spacing" textLength="117.6411" x="223.9531" y="852.6919">Foundation model</text><text fill="#000000" font-family="sans-serif" font-size="13" lengthAdjust="spacing" textLength="137.8838" x="223.9531" y="867.8247">for Earth observation</text><rect fill="#F1F1F1" height="33.9688" rx="12.5" ry="12.5" style="stroke:#181818;stroke-width:0.5;" width="181.9531" x="16" y="816.0742"/><text fill="#000000" font-family="sans-serif" font-size="12" lengthAdjust="spacing" textLength="161.9531" x="26" y="837.2129">Preparation for Fine-tuning</text><rect fill="#F1F1F1" height="33.9688" rx="12.5" ry="12.5" style="stroke:#181818;stroke-width:0.5;" width="181.8418" x="16.0557" y="895.8906"/><text fill="#000000" font-family="sans-serif" font-size="12" lengthAdjust="spacing" textLength="161.8418" x="26.0557" y="917.0293">Dataset Ready for Training</text><ellipse cx="106.9766" cy="960.8594" fill="none" rx="11" ry="11" style="stroke:#222222;stroke-width:1;"/><ellipse cx="106.9766" cy="960.8594" fill="#222222" rx="6" ry="6" style="stroke:#222222;stroke-width:1;"/><line style="stroke:#181818;stroke-width:1;" x1="106.9766" x2="106.9766" y1="88.5938" y2="124.4414"/><polygon fill="#181818" points="102.9766,114.4414,106.9766,124.4414,110.9766,114.4414,106.9766,118.4414" style="stroke:#181818;stroke-width:1;"/><line style="stroke:#181818;stroke-width:1;" x1="106.9766" x2="106.9766" y1="158.4102" y2="242.8047"/><polygon fill="#181818" points="102.9766,232.8047,106.9766,242.8047,110.9766,232.8047,106.9766,236.8047" style="stroke:#181818;stroke-width:1;"/><line style="stroke:#181818;stroke-width:1;" x1="106.9766" x2="106.9766" y1="276.7734" y2="368.7344"/><polygon fill="#181818" points="102.9766,358.7344,106.9766,368.7344,110.9766,358.7344,106.9766,362.7344" style="stroke:#181818;stroke-width:1;"/><line style="stroke:#181818;stroke-width:1;" x1="106.9766" x2="106.9766" y1="402.7031" y2="471.9648"/><polygon fill="#181818" points="102.9766,461.9648,106.9766,471.9648,110.9766,461.9648,106.9766,465.9648" style="stroke:#181818;stroke-width:1;"/><line style="stroke:#181818;stroke-width:1;" x1="106.9766" x2="106.9766" y1="505.9336" y2="552.4961"/><polygon fill="#181818" points="102.9766,542.4961,106.9766,552.4961,110.9766,542.4961,106.9766,546.4961" style="stroke:#181818;stroke-width:1;"/><line style="stroke:#181818;stroke-width:1;" x1="106.9766" x2="106.9766" y1="586.4648" y2="617.1797"/><polygon fill="#181818" points="102.9766,607.1797,106.9766,617.1797,110.9766,607.1797,106.9766,611.1797" style="stroke:#181818;stroke-width:1;"/><line style="stroke:#181818;stroke-width:1;" x1="106.9766" x2="106.9766" y1="651.1484" y2="705.2773"/><polygon fill="#181818" points="102.9766,695.2773,106.9766,705.2773,110.9766,695.2773,106.9766,699.2773" style="stroke:#181818;stroke-width:1;"/><line style="stroke:#181818;stroke-width:1;" x1="106.9766" x2="106.9766" y1="739.2461" y2="816.0742"/><polygon fill="#181818" points="102.9766,806.0742,106.9766,816.0742,110.9766,806.0742,106.9766,810.0742" style="stroke:#181818;stroke-width:1;"/><line style="stroke:#181818;stroke-width:1;" x1="106.9766" x2="106.9766" y1="850.043" y2="895.8906"/><polygon fill="#181818" points="102.9766,885.8906,106.9766,895.8906,110.9766,885.8906,106.9766,889.8906" style="stroke:#181818;stroke-width:1;"/><line style="stroke:#181818;stroke-width:1;" x1="106.9766" x2="106.9766" y1="929.8594" y2="949.8594"/><polygon fill="#181818" points="102.9766,939.8594,106.9766,949.8594,110.9766,939.8594,106.9766,943.8594" style="stroke:#181818;stroke-width:1;"/><?plantuml-src TLJBRjim4BppA_Pe7nm_2kIWe8S0UI10tGIMqKlR0osj9ROKgPAK2_VhEolPZbCt5u6YbhCpioCcaopJdKuwSYBjIde9t0PVS8p6LTzStcXhbyPnlCjfwmCzEJonITX41UKcCIrrs-95gPXqI4fbHyISBHV9U7UZd4TXC5MTrF5h5xdCr7aBfNBVXO8pLQVKncmwhRkg0lHM5tnL-6av78rJjbRhfjrFtnndA916e93hX1fXzzJeYkcs-DMPQ2x8B3kRKDMqFa2Lu6TgGkivVQJ5R7ujwqM_NYnKp_n0Um9nBg6ldIneDFz0ZG355de5Q0Cpu_YyQawZ_7OrfgzcI_3Bca9lB7z7oTtzycBtJCbZy1tUrg5BzRioLhpbmAvWQdJy6ONVQLJDC2gSueZzrz8zwv0TfELTos47QEz07XB9ErLu5xqrS0NlLc_OofZFkBrrRyMLYP1_mIvliOS2RKtb6ZX26qw_cLscuFH8Z1xtyOFN8-4pLkfvyqEoiqCO4Ce8SapnW2Eyq0aYzkTi-l5yxaMRFvSi85sNnZUSWYc04S8GJdpuecq7-4Bt0iMxjajK-yPNx0vOvvrUT2fgUcJ7_rMBt95noHFCE9YFi5hOB_zGv4OZ50KMbPXnWNxwVGJe7mbhGHmOorpaf7fTz-6K7pKxbahpnZkJV1YaBNt95gtjIVo3SV0Ku-_p8i7W7Vou58sxGGzw-xi0vtYIEcdnXkHWdYvrcqx5CaIJwfsX-sTQNCre_OckPxEbKW-Ixg6k4MgzHVUuHsho6ndxk_QiM9VxdibHwOrSGRxz2m00?></g></svg>