<svg xmlns="http://www.w3.org/2000/svg" xmlns:xlink="http://www.w3.org/1999/xlink" contentStyleType="text/css" data-diagram-type="ACTIVITY" height="1112px" preserveAspectRatio="none" style="width:1184px;height:1112px;background:#FFFFFF;" version="1.1" viewBox="0 0 1184 1112" width="1184px" zoomAndPan="magnify"><?plantuml 1.2026.3beta6?><defs/><g><g class="title" data-source-line="1"><text fill="#000000" font-family="sans-serif" font-size="14" font-weight="700" lengthAdjust="spacing" textLength="478.9531" x="352.0051" y="32.9951">Experimental Methodology for Informal Mining Site Mapping</text><text fill="#000000" font-family="sans-serif" font-size="14" font-weight="700" lengthAdjust="spacing" textLength="295.333" x="443.8152" y="49.292">using a Fine-tuned Foundation Model</text></g><ellipse cx="581.4817" cy="78.5938" fill="#222222" rx="10" ry="10" style="stroke:#222222;stroke-width:1;"/><path d="M687.1643,98.5938 L687.1643,129.8594 L667.1643,133.8594 L687.1643,137.8594 L687.1643,169.125 A0,0 0 0 0 687.1643,169.125 L946.9758,169.125 A0,0 0 0 0 946.9758,169.125 L946.9758,108.5938 L936.9758,98.5938 L687.1643,98.5938 A0,0 0 0 0 687.1643,98.5938" fill="#FEFFDD" style="stroke:#181818;stroke-width:0.5;"/><path d="M936.9758,98.5938 L936.9758,108.5938 L946.9758,108.5938 L936.9758,98.5938" fill="#FEFFDD" style="stroke:#181818;stroke-width:0.5;"/><text fill="#000000" font-family="sans-serif" font-size="13" lengthAdjust="spacing" textLength="115.2861" x="693.1643" y="115.6606">- Sentinel-1 (SAR)</text><text fill="#000000" font-family="sans-serif" font-size="13" lengthAdjust="spacing" textLength="238.8115" x="693.1643" y="130.7935">- Sentinel-2 (13 multispectral bands)</text><text fill="#000000" font-family="sans-serif" font-size="13" lengthAdjust="spacing" textLength="38.2637" x="693.1643" y="145.9263">- DEM</text><text fill="#000000" font-family="sans-serif" font-size="13" lengthAdjust="spacing" textLength="157.5996" x="693.1643" y="161.0591">- Informal mining masks</text><rect fill="#F1F1F1" height="33.9688" rx="12.5" ry="12.5" style="stroke:#181818;stroke-width:0.5;" width="171.3652" x="495.7991" y="116.875"/><text fill="#000000" font-family="sans-serif" font-size="12" lengthAdjust="spacing" textLength="151.3652" x="505.7991" y="138.0137">Satellite Data Acquisition</text><path d="M669.9583,179.125 L669.9583,210.3906 L649.9583,214.3906 L669.9583,218.3906 L669.9583,249.6563 A0,0 0 0 0 669.9583,249.6563 L935.7239,249.6563 A0,0 0 0 0 935.7239,249.6563 L935.7239,189.125 L925.7239,179.125 L669.9583,179.125 A0,0 0 0 0 669.9583,179.125" fill="#FEFFDD" style="stroke:#181818;stroke-width:0.5;"/><path d="M925.7239,179.125 L925.7239,189.125 L935.7239,189.125 L925.7239,179.125" fill="#FEFFDD" style="stroke:#181818;stroke-width:0.5;"/><text fill="#000000" font-family="sans-serif" font-size="13" lengthAdjust="spacing" textLength="99.3916" x="675.9583" y="196.1919">- Normalization</text><text fill="#000000" font-family="sans-serif" font-size="13" lengthAdjust="spacing" textLength="221.9521" x="675.9583" y="211.3247">- Spatial correction and alignment</text><text fill="#000000" font-family="sans-serif" font-size="13" lengthAdjust="spacing" textLength="244.7656" x="675.9583" y="226.4575">- Multitemporal registration (T1 + T2)</text><text fill="#000000" font-family="sans-serif" font-size="13" lengthAdjust="spacing" textLength="119.9453" x="675.9583" y="241.5903">- Patch generation</text><rect fill="#F1F1F1" height="33.9688" rx="12.5" ry="12.5" style="stroke:#181818;stroke-width:0.5;" width="136.9531" x="513.0051" y="197.4063"/><text fill="#000000" font-family="sans-serif" font-size="12" lengthAdjust="spacing" textLength="116.9531" x="523.0051" y="218.5449">Data Preprocessing</text><path d="M650.1887,266.5078 L650.1887,282.6406 L630.1887,286.6406 L650.1887,290.6406 L650.1887,306.7734 A0,0 0 0 0 650.1887,306.7734 L745.2151,306.7734 A0,0 0 0 0 745.2151,306.7734 L745.2151,276.5078 L735.2151,266.5078 L650.1887,266.5078 A0,0 0 0 0 650.1887,266.5078" fill="#FEFFDD" style="stroke:#181818;stroke-width:0.5;"/><path d="M735.2151,266.5078 L735.2151,276.5078 L745.2151,276.5078 L735.2151,266.5078" fill="#FEFFDD" style="stroke:#181818;stroke-width:0.5;"/><text fill="#000000" font-family="sans-serif" font-size="13" lengthAdjust="spacing" textLength="41.9263" x="656.1887" y="283.5747">- Train</text><text fill="#000000" font-family="sans-serif" font-size="13" lengthAdjust="spacing" textLength="74.0264" x="656.1887" y="298.7075">- Validation</text><rect fill="#F1F1F1" height="33.9688" rx="12.5" ry="12.5" style="stroke:#181818;stroke-width:0.5;" width="97.4141" x="532.7747" y="269.6563"/><text fill="#000000" font-family="sans-serif" font-size="12" lengthAdjust="spacing" textLength="77.4141" x="542.7747" y="290.7949">Dataset Split</text><path d="M694.6672,323.625 L694.6672,339.7578 L674.6672,343.7578 L694.6672,347.7578 L694.6672,363.8906 A0,0 0 0 0 694.6672,363.8906 L937.7971,363.8906 A0,0 0 0 0 937.7971,363.8906 L937.7971,333.625 L927.7971,323.625 L694.6672,323.625 A0,0 0 0 0 694.6672,323.625" fill="#FEFFDD" style="stroke:#181818;stroke-width:0.5;"/><path d="M927.7971,323.625 L927.7971,333.625 L937.7971,333.625 L927.7971,323.625" fill="#FEFFDD" style="stroke:#181818;stroke-width:0.5;"/><text fill="#000000" font-family="sans-serif" font-size="13" lengthAdjust="spacing" textLength="125.7217" x="700.6672" y="340.6919">Prithvi 2.0 TL 600M</text><text fill="#000000" font-family="sans-serif" font-size="13" lengthAdjust="spacing" textLength="222.1299" x="700.6672" y="355.8247">(Pretrained for Earth Observation)</text><rect fill="#F1F1F1" height="33.9688" rx="12.5" ry="12.5" style="stroke:#181818;stroke-width:0.5;" width="186.3711" x="488.2961" y="326.7734"/><text fill="#000000" font-family="sans-serif" font-size="12" lengthAdjust="spacing" textLength="166.3711" x="498.2961" y="347.9121">Foundation Model Selection</text><path d="M663.0442,373.8906 L663.0442,427.8555 L643.0442,431.8555 L663.0442,435.8555 L663.0442,489.8203 A0,0 0 0 0 663.0442,489.8203 L788.2473,489.8203 A0,0 0 0 0 788.2473,489.8203 L788.2473,383.8906 L778.2473,373.8906 L663.0442,373.8906 A0,0 0 0 0 663.0442,373.8906" fill="#FEFFDD" style="stroke:#181818;stroke-width:0.5;"/><path d="M778.2473,373.8906 L778.2473,383.8906 L788.2473,383.8906 L778.2473,373.8906" fill="#FEFFDD" style="stroke:#181818;stroke-width:0.5;"/><text fill="#000000" font-family="sans-serif" font-size="13" lengthAdjust="spacing" textLength="104.2031" x="669.0442" y="390.9575">Optimization of:</text><text fill="#000000" font-family="sans-serif" font-size="13" lengthAdjust="spacing" textLength="99.9438" x="669.0442" y="406.0903">- Learning Rate</text><text fill="#000000" font-family="sans-serif" font-size="13" lengthAdjust="spacing" textLength="77.0098" x="669.0442" y="421.2231">- Batch Size</text><text fill="#000000" font-family="sans-serif" font-size="13" lengthAdjust="spacing" textLength="99.8232" x="669.0442" y="436.356">- Weight Decay</text><text fill="#000000" font-family="sans-serif" font-size="13" lengthAdjust="spacing" textLength="72.4585" x="669.0442" y="451.4888">- Optimizer</text><text fill="#000000" font-family="sans-serif" font-size="13" lengthAdjust="spacing" textLength="73.9058" x="669.0442" y="466.6216">- Scheduler</text><text fill="#000000" font-family="sans-serif" font-size="13" lengthAdjust="spacing" textLength="55.4023" x="669.0442" y="481.7544">- Epochs</text><rect fill="#F1F1F1" height="33.9688" rx="12.5" ry="12.5" style="stroke:#181818;stroke-width:0.5;" width="123.125" x="519.9192" y="414.8711"/><text fill="#000000" font-family="sans-serif" font-size="12" lengthAdjust="spacing" textLength="103.125" x="529.9192" y="436.0098">HPO with Optuna</text><path d="M665.4172,499.8203 L665.4172,523.5195 L645.4172,527.5195 L665.4172,531.5195 L665.4172,555.2188 A0,0 0 0 0 665.4172,555.2188 L853.2844,555.2188 A0,0 0 0 0 853.2844,555.2188 L853.2844,509.8203 L843.2844,499.8203 L665.4172,499.8203 A0,0 0 0 0 665.4172,499.8203" fill="#FEFFDD" style="stroke:#181818;stroke-width:0.5;"/><path d="M843.2844,499.8203 L843.2844,509.8203 L853.2844,509.8203 L843.2844,499.8203" fill="#FEFFDD" style="stroke:#181818;stroke-width:0.5;"/><text fill="#000000" font-family="sans-serif" font-size="13" lengthAdjust="spacing" textLength="124.0332" x="671.4172" y="516.8872">- Transfer Learning</text><text fill="#000000" font-family="sans-serif" font-size="13" lengthAdjust="spacing" textLength="166.8672" x="671.4172" y="532.02">- Encoder/Decoder tuning</text><text fill="#000000" font-family="sans-serif" font-size="13" lengthAdjust="spacing" textLength="152.3945" x="671.4172" y="547.1528">- Training configuration</text><rect fill="#F1F1F1" height="33.9688" rx="12.5" ry="12.5" style="stroke:#181818;stroke-width:0.5;" width="127.8711" x="517.5461" y="510.5352"/><text fill="#000000" font-family="sans-serif" font-size="12" lengthAdjust="spacing" textLength="107.8711" x="527.5461" y="531.6738">Model Fine-tuning</text><rect fill="#555555" height="6" rx="2.5" ry="2.5" style="stroke:#555555;stroke-width:1;" width="1148.9634" x="16" y="575.2188"/><path d="M158.7207,591.2188 L158.7207,622.4844 L138.7207,626.4844 L158.7207,630.4844 L158.7207,661.75 A0,0 0 0 0 158.7207,661.75 L314.3926,661.75 A0,0 0 0 0 314.3926,661.75 L314.3926,601.2188 L304.3926,591.2188 L158.7207,591.2188 A0,0 0 0 0 158.7207,591.2188" fill="#FEFFDD" style="stroke:#181818;stroke-width:0.5;"/><path d="M304.3926,591.2188 L304.3926,601.2188 L314.3926,601.2188 L304.3926,591.2188" fill="#FEFFDD" style="stroke:#181818;stroke-width:0.5;"/><text fill="#000000" font-family="sans-serif" font-size="13" lengthAdjust="spacing" textLength="134.6719" x="164.7207" y="608.2856">Conventional model:</text><text fill="#000000" font-family="sans-serif" font-size="13" lengthAdjust="spacing" textLength="45.8491" x="164.7207" y="623.4185">- U-Net</text><text fill="#000000" font-family="sans-serif" font-size="13" lengthAdjust="spacing" textLength="37.3496" x="164.7207" y="638.5513">- CNN</text><text fill="#000000" font-family="sans-serif" font-size="13" lengthAdjust="spacing" textLength="80.1074" x="164.7207" y="653.6841">- SegFormer</text><rect fill="#F1F1F1" height="33.9688" rx="12.5" ry="12.5" style="stroke:#181818;stroke-width:0.5;" width="110.7207" x="28" y="609.5"/><text fill="#000000" font-family="sans-serif" font-size="12" lengthAdjust="spacing" textLength="90.7207" x="38" y="630.6387">Baseline Model</text><path d="M523.4102,613.918 L523.4102,622.4844 L503.4102,626.4844 L523.4102,630.4844 L523.4102,639.0508 A0,0 0 0 0 523.4102,639.0508 L766.6289,639.0508 A0,0 0 0 0 766.6289,639.0508 L766.6289,623.918 L756.6289,613.918 L523.4102,613.918 A0,0 0 0 0 523.4102,613.918" fill="#FEFFDD" style="stroke:#181818;stroke-width:0.5;"/><path d="M756.6289,613.918 L756.6289,623.918 L766.6289,623.918 L756.6289,613.918" fill="#FEFFDD" style="stroke:#181818;stroke-width:0.5;"/><text fill="#000000" font-family="sans-serif" font-size="13" lengthAdjust="spacing" textLength="222.2188" x="529.4102" y="630.9849">Direct transfer without adaptation</text><rect fill="#F1F1F1" height="33.9688" rx="12.5" ry="12.5" style="stroke:#181818;stroke-width:0.5;" width="179.0176" x="324.3926" y="609.5"/><text fill="#000000" font-family="sans-serif" font-size="12" lengthAdjust="spacing" textLength="159.0176" x="334.3926" y="630.6387">Prithvi without Fine-tuning</text><path d="M958.5898,613.918 L958.5898,622.4844 L938.5898,626.4844 L958.5898,630.4844 L958.5898,639.0508 A0,0 0 0 0 958.5898,639.0508 L1152.9634,639.0508 A0,0 0 0 0 1152.9634,639.0508 L1152.9634,623.918 L1142.9634,613.918 L958.5898,613.918 A0,0 0 0 0 958.5898,613.918" fill="#FEFFDD" style="stroke:#181818;stroke-width:0.5;"/><path d="M1142.9634,613.918 L1142.9634,623.918 L1152.9634,623.918 L1142.9634,613.918" fill="#FEFFDD" style="stroke:#181818;stroke-width:0.5;"/><text fill="#000000" font-family="sans-serif" font-size="13" lengthAdjust="spacing" textLength="173.3735" x="964.5898" y="630.9849">Proposed optimized model</text><rect fill="#F1F1F1" height="33.9688" rx="12.5" ry="12.5" style="stroke:#181818;stroke-width:0.5;" width="143.9609" x="794.6289" y="609.5"/><text fill="#000000" font-family="sans-serif" font-size="12" lengthAdjust="spacing" textLength="123.9609" x="804.6289" y="630.6387">Prithvi + Fine-tuning</text><rect fill="#555555" height="6" rx="2.5" ry="2.5" style="stroke:#555555;stroke-width:1;" width="1148.9634" x="16" y="681.75"/><path d="M676.9045,704.6016 L676.9045,720.7344 L656.9045,724.7344 L676.9045,728.7344 L676.9045,744.8672 A0,0 0 0 0 676.9045,744.8672 L869.5642,744.8672 A0,0 0 0 0 869.5642,744.8672 L869.5642,714.6016 L859.5642,704.6016 L676.9045,704.6016 A0,0 0 0 0 676.9045,704.6016" fill="#FEFFDD" style="stroke:#181818;stroke-width:0.5;"/><path d="M859.5642,704.6016 L859.5642,714.6016 L869.5642,714.6016 L859.5642,704.6016" fill="#FEFFDD" style="stroke:#181818;stroke-width:0.5;"/><text fill="#000000" font-family="sans-serif" font-size="13" lengthAdjust="spacing" textLength="171.6597" x="682.9045" y="721.6685">Semantic segmentation of</text><text fill="#000000" font-family="sans-serif" font-size="13" lengthAdjust="spacing" textLength="137.103" x="682.9045" y="736.8013">informal mining sites</text><rect fill="#F1F1F1" height="33.9688" rx="12.5" ry="12.5" style="stroke:#181818;stroke-width:0.5;" width="150.8457" x="506.0588" y="707.75"/><text fill="#000000" font-family="sans-serif" font-size="12" lengthAdjust="spacing" textLength="130.8457" x="516.0588" y="728.8887">Prediction Generation</text><path d="M685.0579,754.8672 L685.0579,839.0977 L665.0579,843.0977 L685.0579,847.0977 L685.0579,931.3281 A0,0 0 0 0 685.0579,931.3281 L841.9104,931.3281 A0,0 0 0 0 841.9104,931.3281 L841.9104,764.8672 L831.9104,754.8672 L685.0579,754.8672 A0,0 0 0 0 685.0579,754.8672" fill="#FEFFDD" style="stroke:#181818;stroke-width:0.5;"/><path d="M831.9104,754.8672 L831.9104,764.8672 L841.9104,764.8672 L831.9104,754.8672" fill="#FEFFDD" style="stroke:#181818;stroke-width:0.5;"/><text fill="#000000" font-family="sans-serif" font-size="13" lengthAdjust="spacing" textLength="88.1816" x="691.0579" y="771.9341">Main metrics:</text><text fill="#000000" font-family="sans-serif" font-size="13" lengthAdjust="spacing" textLength="42.7896" x="691.0579" y="787.0669">- mIoU</text><text fill="#000000" font-family="sans-serif" font-size="13" lengthAdjust="spacing" textLength="65.9585" x="691.0579" y="802.1997">- F1-Score</text><text fill="#000000" font-family="sans-serif" font-size="13" lengthAdjust="spacing" textLength="109.5288" x="691.0579" y="817.3325">- Boundary mIoU</text><text fill="#000000" font-family="sans-serif" font-size="13" lengthAdjust="spacing" textLength="92.2568" x="691.0579" y="832.4653">- IoU per class</text><text fill="#000000" font-family="sans-serif" font-size="13" lengthAdjust="spacing" textLength="103.2891" x="691.0579" y="847.5981">- Pixel Accuracy</text><text fill="#000000" font-family="sans-serif" font-size="13" lengthAdjust="spacing" textLength="4.1323" x="691.0579" y="862.731">&#160;</text><text fill="#000000" font-family="sans-serif" font-size="13" lengthAdjust="spacing" textLength="122.6367" x="691.0579" y="877.8638">Additional metrics:</text><text fill="#000000" font-family="sans-serif" font-size="13" lengthAdjust="spacing" textLength="68.4023" x="691.0579" y="892.9966">- Accuracy</text><text fill="#000000" font-family="sans-serif" font-size="13" lengthAdjust="spacing" textLength="106.7358" x="691.0579" y="908.1294">- Class Accuracy</text><text fill="#000000" font-family="sans-serif" font-size="13" lengthAdjust="spacing" textLength="135.8525" x="691.0579" y="923.2622">- Loss (convergence)</text><rect fill="#F1F1F1" height="33.9688" rx="12.5" ry="12.5" style="stroke:#181818;stroke-width:0.5;" width="167.1523" x="497.9055" y="826.1133"/><text fill="#000000" font-family="sans-serif" font-size="12" lengthAdjust="spacing" textLength="147.1523" x="507.9055" y="847.252">Experimental Evaluation</text><path d="M671.2473,941.3281 L671.2473,965.0273 L651.2473,969.0273 L671.2473,973.0273 L671.2473,996.7266 A0,0 0 0 0 671.2473,996.7266 L886.2888,996.7266 A0,0 0 0 0 886.2888,996.7266 L886.2888,951.3281 L876.2888,941.3281 L671.2473,941.3281 A0,0 0 0 0 671.2473,941.3281" fill="#FEFFDD" style="stroke:#181818;stroke-width:0.5;"/><path d="M876.2888,941.3281 L876.2888,951.3281 L886.2888,951.3281 L876.2888,941.3281" fill="#FEFFDD" style="stroke:#181818;stroke-width:0.5;"/><text fill="#000000" font-family="sans-serif" font-size="13" lengthAdjust="spacing" textLength="160.5132" x="677.2473" y="958.395">Comparative evaluation:</text><text fill="#000000" font-family="sans-serif" font-size="13" lengthAdjust="spacing" textLength="194.0415" x="677.2473" y="973.5278">Baseline vs Foundation Model</text><text fill="#000000" font-family="sans-serif" font-size="13" lengthAdjust="spacing" textLength="131.606" x="677.2473" y="988.6606">vs Fine-tuned Model</text><rect fill="#F1F1F1" height="33.9688" rx="12.5" ry="12.5" style="stroke:#181818;stroke-width:0.5;" width="139.5313" x="511.7161" y="952.043"/><text fill="#000000" font-family="sans-serif" font-size="12" lengthAdjust="spacing" textLength="119.5313" x="521.7161" y="973.1816">Results Comparison</text><rect fill="#F1F1F1" height="33.9688" rx="12.5" ry="12.5" style="stroke:#181818;stroke-width:0.5;" width="175.168" x="493.8977" y="1016.7266"/><text fill="#000000" font-family="sans-serif" font-size="12" lengthAdjust="spacing" textLength="155.168" x="503.8977" y="1037.8652">Final Informal Mining Map</text><ellipse cx="581.4817" cy="1081.6953" fill="none" rx="11" ry="11" style="stroke:#222222;stroke-width:1;"/><ellipse cx="581.4817" cy="1081.6953" fill="#222222" rx="6" ry="6" style="stroke:#222222;stroke-width:1;"/><line style="stroke:#181818;stroke-width:1;" x1="581.4817" x2="581.4817" y1="88.5938" y2="116.875"/><polygon fill="#181818" points="577.4817,106.875,581.4817,116.875,585.4817,106.875,581.4817,110.875" style="stroke:#181818;stroke-width:1;"/><line style="stroke:#181818;stroke-width:1;" x1="581.4817" x2="581.4817" y1="150.8438" y2="197.4063"/><polygon fill="#181818" points="577.4817,187.4063,581.4817,197.4063,585.4817,187.4063,581.4817,191.4063" style="stroke:#181818;stroke-width:1;"/><line style="stroke:#181818;stroke-width:1;" x1="581.4817" x2="581.4817" y1="231.375" y2="269.6563"/><polygon fill="#181818" points="577.4817,259.6563,581.4817,269.6563,585.4817,259.6563,581.4817,263.6563" style="stroke:#181818;stroke-width:1;"/><line style="stroke:#181818;stroke-width:1;" x1="581.4817" x2="581.4817" y1="303.625" y2="326.7734"/><polygon fill="#181818" points="577.4817,316.7734,581.4817,326.7734,585.4817,316.7734,581.4817,320.7734" style="stroke:#181818;stroke-width:1;"/><line style="stroke:#181818;stroke-width:1;" x1="581.4817" x2="581.4817" y1="360.7422" y2="414.8711"/><polygon fill="#181818" points="577.4817,404.8711,581.4817,414.8711,585.4817,404.8711,581.4817,408.8711" style="stroke:#181818;stroke-width:1;"/><line style="stroke:#181818;stroke-width:1;" x1="581.4817" x2="581.4817" y1="448.8398" y2="510.5352"/><polygon fill="#181818" points="577.4817,500.5352,581.4817,510.5352,585.4817,500.5352,581.4817,504.5352" style="stroke:#181818;stroke-width:1;"/><line style="stroke:#181818;stroke-width:1;" x1="83.3604" x2="83.3604" y1="581.2188" y2="609.5"/><polygon fill="#181818" points="79.3604,599.5,83.3604,609.5,87.3604,599.5,83.3604,603.5" style="stroke:#181818;stroke-width:1;"/><line style="stroke:#181818;stroke-width:1;" x1="413.9014" x2="413.9014" y1="581.2188" y2="609.5"/><polygon fill="#181818" points="409.9014,599.5,413.9014,609.5,417.9014,599.5,413.9014,603.5" style="stroke:#181818;stroke-width:1;"/><line style="stroke:#181818;stroke-width:1;" x1="866.6094" x2="866.6094" y1="581.2188" y2="609.5"/><polygon fill="#181818" points="862.6094,599.5,866.6094,609.5,870.6094,599.5,866.6094,603.5" style="stroke:#181818;stroke-width:1;"/><line style="stroke:#181818;stroke-width:1;" x1="83.3604" x2="83.3604" y1="643.4688" y2="681.75"/><polygon fill="#181818" points="79.3604,671.75,83.3604,681.75,87.3604,671.75,83.3604,675.75" style="stroke:#181818;stroke-width:1;"/><line style="stroke:#181818;stroke-width:1;" x1="413.9014" x2="413.9014" y1="643.4688" y2="681.75"/><polygon fill="#181818" points="409.9014,671.75,413.9014,681.75,417.9014,671.75,413.9014,675.75" style="stroke:#181818;stroke-width:1;"/><line style="stroke:#181818;stroke-width:1;" x1="866.6094" x2="866.6094" y1="643.4688" y2="681.75"/><polygon fill="#181818" points="862.6094,671.75,866.6094,681.75,870.6094,671.75,866.6094,675.75" style="stroke:#181818;stroke-width:1;"/><line style="stroke:#181818;stroke-width:1;" x1="581.4817" x2="581.4817" y1="544.5039" y2="575.2188"/><polygon fill="#181818" points="577.4817,565.2188,581.4817,575.2188,585.4817,565.2188,581.4817,569.2188" style="stroke:#181818;stroke-width:1;"/><line style="stroke:#181818;stroke-width:1;" x1="581.4817" x2="581.4817" y1="687.75" y2="707.75"/><polygon fill="#181818" points="577.4817,697.75,581.4817,707.75,585.4817,697.75,581.4817,701.75" style="stroke:#181818;stroke-width:1;"/><line style="stroke:#181818;stroke-width:1;" x1="581.4817" x2="581.4817" y1="741.7188" y2="826.1133"/><polygon fill="#181818" points="577.4817,816.1133,581.4817,826.1133,585.4817,816.1133,581.4817,820.1133" style="stroke:#181818;stroke-width:1;"/><line style="stroke:#181818;stroke-width:1;" x1="581.4817" x2="581.4817" y1="860.082" y2="952.043"/><polygon fill="#181818" points="577.4817,942.043,581.4817,952.043,585.4817,942.043,581.4817,946.043" style="stroke:#181818;stroke-width:1;"/><line style="stroke:#181818;stroke-width:1;" x1="581.4817" x2="581.4817" y1="986.0117" y2="1016.7266"/><polygon fill="#181818" points="577.4817,1006.7266,581.4817,1016.7266,585.4817,1006.7266,581.4817,1010.7266" style="stroke:#181818;stroke-width:1;"/><line style="stroke:#181818;stroke-width:1;" x1="581.4817" x2="581.4817" y1="1050.6953" y2="1070.6953"/><polygon fill="#181818" points="577.4817,1060.6953,581.4817,1070.6953,585.4817,1060.6953,581.4817,1064.6953" style="stroke:#181818;stroke-width:1;"/><?plantuml-src TLHDSzem4BtxL-oHJ8Osf3Czq1C9q6Oc42QGzjAB8Yz64rjo9Pc6_Fg-jO5WqrnawsDttxwtkz74d6doMh8t1TkeSffntBZKvIxRqTfvkhDO2xamrjYCbYOopLHPOlFRLa7E54sDvNwiBASqTPLDLJJEqiobd2T9YCh791akLUGy5_knYef6-azbWf6NtnBhSEnDjeb9dvQ00eTvVq2zvUZnulJecdg3BrHKUJIXP1qze3qhcmPvDPxCi1uX5mtaGeMNaB1DIQ80I1r-uRdqJdEG53e0vhMzUQlJaEWb_k1GE-yHKt93ICAJp0flU38JH96BqWaYpva9m5O_xQq6T4chQq6uK55lA6FBpMKNLk28Q22fWsZbbH4aFn4pFRFiSWwwyWPdoyt2cxZP6hh-T4MhU_fwTJLBUk0XYdD89tfFeDM67fu3-stjyU8qq8_50_qryg24sghb7KUcs7D6RZq4sdjMlfRW4T9ZVrDdlpHlild5OaPZrcg7xTwSlV2jDvnMUVq_APtUjEHhKZoKtBbwuCg6DVjZUF5YDQpyPqIJBpM61s85edPsRRBgJ1QGyeAWDv0cHyY6u5R4MsUtKfxEIit9jUJ-r9-peBcTp-lwpQOeAcJKzamg4s6JuK4ROTTLySFqnaOgaE8XnyDxbQeo_W_xMOJB3tqll2jTG26ulHPfayw9H_dRCuB2IKtJ3D-FzTpoj-H2WHTDWRDwlEnB8p6T3iKKu9R4hP4qsQgyElS-GrfKe7YD3a9uSUUUy9aE-alqQLrkTLlutU4AAy4lwLo58CreNb588wsXkjuboIXDpK76Tx_7UsWfXgS7zmxxdfO2y6XgpQrkUUI0gH3erXMbyYPq4cYEaTYMYOyv3fDZgMt3-JILi_TXE-l8CyGTq7U7DkRrDvd3hlm7?></g></svg>